<?xml version="1.0" standalone="no"?>
<!--
  Copyright 2014 - 2018 Blazebit.

  Licensed under the Apache License, Version 2.0 (the "License");
  you may not use this file except in compliance with the License.
  You may obtain a copy of the License at

       http://www.apache.org/licenses/LICENSE-2.0

  Unless required by applicable law or agreed to in writing, software
  distributed under the License is distributed on an "AS IS" BASIS,
  WITHOUT WARRANTIES OR CONDITIONS OF ANY KIND, either express or implied.
  See the License for the specific language governing permissions and
  limitations under the License.
  -->

<!DOCTYPE svg PUBLIC "-//W3C//DTD SVG 1.1//EN" "http://www.w3.org/Graphics/SVG/1.1/DTD/svg11.dtd" >
<svg>
<metadata>
Created by FontForge 20110222 at Mon Aug 18 03:45:51 2014
 By Orthosie Webhosting
Copyright (c) 2009-2010, Ed Merritt (ed@edmerritt.com)
This Font Software is licensed under the SIL Open Font License, Version 1.1.
This license is available with a FAQ at http://scripts.sil.org/OFL
</metadata>
<defs>
<font id="JuraItalic" horiz-adv-x="553" >
  <font-face 
    font-family="JuraItalic"
    font-weight="400"
    font-style="italic"
    font-stretch="normal"
    units-per-em="1000"
    panose-1="0 0 0 0 0 0 0 0 0 0"
    ascent="782"
    descent="-218"
    x-height="488"
    cap-height="664"
    bbox="-98 -218 1012.39 838"
    underline-thickness="50"
    underline-position="-50"
    unicode-range="U+000D-FB02"
  />
<missing-glyph horiz-adv-x="250" 
 />
    <glyph glyph-name=".notdef" horiz-adv-x="250" 
 />
    <glyph glyph-name=".null" 
 />
    <glyph glyph-name=".null" 
 />
    <glyph glyph-name="nonmarkingreturn" unicode="&#xd;" 
 />
    <glyph glyph-name="space" unicode=" " horiz-adv-x="250" 
 />
    <glyph glyph-name="exclam" unicode="!" horiz-adv-x="163" 
d="M112 137q-5 -20 -27 -20q-24 0 -21 20l66 488q6 39 51 39q46 0 37 -39zM115 39q-8 -39 -51 -39q-44 0 -37 39q6 39 51 39q22 0 31 -10.5t6 -28.5z" />
    <glyph glyph-name="quotedbl" unicode="&#x22;" horiz-adv-x="268" 
d="M333 679q-6 -23 -13.5 -47t-16 -43.5t-18 -32t-18.5 -12.5t-14 12.5t-7 32t-2 43.5t1 47q8 44 50 44q29 0 35.5 -14.5t2.5 -29.5zM228 679q-6 -23 -13.5 -47t-16 -43.5t-18 -32t-18.5 -12.5t-14 12.5t-7 32t-2 43.5t1 47q8 44 50 44q29 0 35.5 -14.5t2.5 -29.5z" />
    <glyph glyph-name="numbersign" unicode="#" horiz-adv-x="629" 
d="M651 436q-1 -2 -1.5 -3.5t-0.5 -3.5l-10 -29q-11 -20 -29 -20h-123l-32 -97h134q15 0 13 -11l-2 -8l-10 -30q-9 -19 -28 -19h-130l-65 -195q-8 -20 -28 -20h-20q-15 0 -14 13q2 6 3 7l65 195h-117l-65 -195q-8 -20 -28 -20h-20q-15 0 -13 12q1 7 3 8l64 195h-123
q-15 0 -14 13l2 7l11 29q9 20 28 20h119l32 97h-130q-16 0 -14 12q2 6 3 7l10 30q9 19 28 19h126l66 196q6 19 27 19h20q15 0 13 -11l-2 -8l-65 -196h117l66 196q6 19 27 19h20q15 0 13 -11l-2 -8l-66 -196h128q15 0 14 -13zM428 380h-117l-32 -96h117z" />
    <glyph glyph-name="dollar" unicode="$" horiz-adv-x="464" 
d="M442 186q-14 -75 -53.5 -121.5t-99.5 -60.5l-18 -4l-6 -32q-3 -19 -23 -19t-15 20l4 25q-5 -1 -11 -1h-11h-9l-5 -25q-3 -19 -23 -19t-15 20l4 28q-17 2 -34 6q-44 10 -93 33l9 96l1 4q3 17 16 17q20 0 23 -20l7 -39q13 -17 44 -34q7 -4 16 -7.5t20 -5.5l49 276
q-26 14 -46 30t-34 35q-35 47 -23 110q11 63 49.5 103.5t92.5 55.5l21 6l4 22q3 20 22 20q20 0 17 -20l-3 -17q4 1 8 1h8q14 0 15 -1l3 17q3 20 22 20q20 0 17 -20l-4 -22q5 -1 9 -1.5t9 -2.5q38 -8 75 -30l-8 -96q-2 -11 -6.5 -16t-15.5 -5q-15 0 -18 20l-6 39
q-15 17 -39 31l-10 6l-44 -251q60 -31 87 -68q32 -44 21 -103zM341 616q-1 1 -12 1h-9.5t-9.5 -1l-40 -227q6 -4 13 -7.5l15 -7.5zM235 415l34 191q-9 -4 -17 -8.5t-15 -11.5q-34 -29 -41 -78q-7 -38 22 -76zM363 176q6 33 -21 68q-9 12 -24 24l-37 -212q21 10 34 22
q36 33 48 98zM283 291q-6 4 -13 7.5l-15 7.5l-46 -262h3h14.5t13.5 1z" />
    <glyph glyph-name="percent" unicode="%" horiz-adv-x="692" 
d="M395 498q-13 -72 -58.5 -116.5t-114.5 -44.5q-32 0 -56 12t-39 33t-20 50.5t1 65.5q10 57 39.5 99t75.5 59q15 6 29.5 8.5t28.5 2.5q31 0 55.5 -11.5t39.5 -33.5t20.5 -53.5t-1.5 -70.5zM709 663l-592 -664h-55l595 664h52zM665 158q-13 -72 -58.5 -116.5t-114.5 -44.5
q-32 0 -56 12t-39 33t-20 50.5t1 65.5q10 57 40 99t75 59q15 6 29.5 8.5t28.5 2.5q31 0 55.5 -11.5t39.5 -33.5t20.5 -53.5t-1.5 -70.5zM331 496q11 60 -2 94.5t-55 34.5q-15 0 -34 -8q-27 -11 -44 -42.5t-25 -76.5q-9 -51 4 -84t55 -33q39 0 65.5 30.5t35.5 84.5zM602 156
q11 60 -2.5 94.5t-55.5 34.5q-15 0 -34 -8q-27 -11 -44 -42.5t-25 -76.5q-9 -51 4 -84t55 -33q39 0 65.5 30.5t36.5 84.5z" />
    <glyph glyph-name="ampersand" unicode="&#x26;" horiz-adv-x="634" 
d="M583 20q-5 -20 -21 -20h-74q-16 0 -23 12l-46 81q-56 -93 -188 -93q-48 0 -84 15.5t-58.5 43.5t-31 66t-0.5 83q6 36 24 69t43 61t55.5 49t62.5 33q-25 49 -15 99q12 69 54.5 107t105.5 38q26 0 43.5 -9.5t27.5 -25t12.5 -35t-0.5 -38.5q-6 -36 -36 -67.5t-97 -63.5
l109 -210l33 73h39l-54 -107l58 -107q3 -4 7 -8t9 -7l21 -12q11 -6 18.5 -12t5.5 -15zM408 546q8 42 -4 62t-32 20q-31 0 -47 -19t-22 -54q-5 -26 -1 -50.5t15 -50.5q80 30 91 92zM261 386q-16 -4 -33.5 -17t-33.5 -33t-28 -46.5t-18 -58.5t0.5 -64t22 -57t39.5 -40.5
t54 -15.5q51 0 85.5 19.5t49.5 48.5z" />
    <glyph glyph-name="quotesingle" unicode="'" horiz-adv-x="163" 
d="M228 679q-6 -23 -13.5 -47t-16 -43.5t-18 -32t-18.5 -12.5t-14 12.5t-7 32t-2 43.5t1 47q8 44 50 44q29 0 35.5 -14.5t2.5 -29.5z" />
    <glyph glyph-name="parenleft" unicode="(" horiz-adv-x="207" 
d="M145 -39q-3 -20 -17 -20q-16 0 -22 20q-58 201 -22 400q34 198 163 401q13 19 29 19q14 0 10 -19q-45 -101 -76 -201t-48 -200q-18 -101 -22 -200.5t5 -199.5z" />
    <glyph glyph-name="parenright" unicode=")" horiz-adv-x="208" 
d="M217 363q-36 -207 -165 -402q-12 -20 -27 -20t-12 20q45 100 76 199.5t49 200.5q17 100 21.5 200t-5.5 201q4 19 19 19q17 0 21 -19q58 -197 23 -399z" />
    <glyph glyph-name="asterisk" unicode="*" horiz-adv-x="281" 
d="M341 654q-2 -11 -8 -15.5t-19 -8.5t-33 -9t-49 -16q30 -14 44.5 -18.5t20.5 -6t8.5 -1.5t9.5 -5q9 -11 8 -20q-2 -9 -11 -17.5t-17 -8.5q-10 0 -13.5 3t-8 11.5t-13.5 23.5t-29 38q2 -39 3.5 -54.5t3.5 -20.5l2 -6q2 -2 -1 -10q-4 -25 -28 -25q-26 0 -21 24q2 10 3 11
t4 6.5t10.5 20.5t21.5 53q-32 -27 -44.5 -39.5t-16.5 -18t-5 -6.5t-10 -5q-9 -6 -16 -6q-8 0 -14.5 9t-4.5 20q2 10 8.5 14.5t19.5 8t33 8.5t50 17q-26 12 -40.5 16.5t-22.5 6.5l-12 3t-9 6q-11 7 -9 18t11.5 19t16.5 8q9 0 12.5 -2t8 -9.5t14 -22.5t30.5 -42q-1 34 -3 49.5
t-3.5 22.5t-2.5 9.5t1 10.5q4 25 28 25t20 -24q-1 -8 -3.5 -13t-7 -13.5t-11 -23.5t-16.5 -42v-1q26 22 39.5 36.5t22 23.5t14.5 12.5t16 3.5q9 0 14.5 -9.5t3.5 -18.5z" />
    <glyph glyph-name="plus" unicode="+" horiz-adv-x="459" 
d="M439 231q-9 -6 -20 -6l-143 3l-21 -140q-3 -13 -10 -18q-7 -6 -18 -5.5t-16 6.5q-6 6 -4 19l21 138l-143 2q-13 1 -16 6q-6 6 -4 20q2 11 9 17q9 6 19 6l143 -2l23 147q1 13 9 18q7 6 18.5 5.5t17.5 -6.5q4 -8 3 -18l-24 -148l143 -2q5 0 10 -0.5t8 -4.5q5 -6 3.5 -18
t-8.5 -19z" />
    <glyph glyph-name="comma" unicode="," horiz-adv-x="172" 
d="M121 20q-3 -13 -8.5 -27t-15 -25t-22.5 -18.5t-29 -7.5q-24 0 -21 16q1 7 6.5 10t11.5 5q2 0 3 0.5t3 0.5q12 4 16.5 10.5t6.5 12.5h-5q-48 0 -40 41q6 41 55 41q48 0 42 -41z" />
    <glyph glyph-name="hyphen" unicode="-" horiz-adv-x="367" 
d="M360 265q-2 -12 -11 -18t-19 -6h-244q-25 0 -19 24q5 23 29 23h243q24 0 21 -23z" />
    <glyph glyph-name="period" unicode="." horiz-adv-x="173" 
d="M125 39q-8 -39 -56 -39q-50 0 -42 39q6 39 56 39q23 0 34 -10.5t8 -28.5z" />
    <glyph glyph-name="slash" unicode="/" horiz-adv-x="348" 
d="M420 723l-341 -723h-59l342 723h58z" />
    <glyph glyph-name="zero" unicode="0" horiz-adv-x="518" 
d="M511 274q-48 -274 -264 -274h-11q-216 0 -168 274q48 273 264 273h11q216 0 168 -273zM430 274q39 223 -100 233q-142 -11 -181 -233t99 -233q143 11 182 233z" />
    <glyph glyph-name="one" unicode="1" horiz-adv-x="290" 
d="M238 15q-3 -15 -22 -15h-157q-19 0 -16 15q2 11 12 17.5t22 11.5t22 11.5t12 17.5l69 390q1 15 -27 15h-20q-29 0 -26 14q3 18 34 25l112 29q20 0 17 -20l-80 -453q-2 -11 6 -17.5t18 -11.5t18 -11.5t6 -17.5z" />
    <glyph glyph-name="two" unicode="2" horiz-adv-x="447" 
d="M382 28q-10 -28 -30 -28h-312q-21 0 -16 20l6 34q3 19 33 41l208 159q63 48 75 116q11 60 -10.5 84.5t-84.5 24.5q-56 0 -119 -16q-2 -1 -8 -1q-14 0 -20 16q5 24 25 29q88 41 160 41q43 0 75 -11.5t51 -32.5t25 -49.5t-1 -61.5q-11 -54 -53 -101.5t-112 -101.5l-80 -61
l-59 -42q-9 -6 -11 -11q0 -3 7 -3h186q10 0 19.5 9t19 20.5t19 20.5t20.5 9q20 0 17 -19z" />
    <glyph glyph-name="three" unicode="3" horiz-adv-x="451" 
d="M409 72q-8 -41 -27 -77t-49.5 -62t-71.5 -41t-91 -15q-15 0 -43 4t-55 12t-46 21t-16 30q7 19 27 19q44 -11 77 -17t58 -6q132 0 156 140q10 54 -13.5 83t-74.5 29h-50q-20 0 -15 23l3 17q3 19 22 19h50q45 0 74 26t37 71q5 28 1.5 53t-16 44t-34.5 30t-53 11
q-55 0 -118 -25q-18 0 -21 20q3 16 23 28.5t46 20.5t52 12.5t40 4.5q47 0 80 -16t53 -43t26.5 -63t-0.5 -76q-17 -90 -77 -124q-6 -2 -6 -4q-1 -4 4 -6q66 -35 48 -143z" />
    <glyph glyph-name="four" unicode="4" horiz-adv-x="545" 
d="M503 73q-3 -19 -23 -19h-59q-20 0 -23 -20l-23 -132q-4 -19 -24 -19h-39q-20 0 -16 19l23 132q3 20 -15 20h-254q-20 0 -17 19l4 25q3 19 16 33l332 389l12 14q12 13 32 13h39q20 0 17 -19l-69 -391q-3 -20 16 -20h59q20 0 16 -19zM391 440q1 12 -1 12l-5 -4l-265 -320
q-3 -2 -3 -6q-2 -5 12 -5h186q19 0 22 20z" />
    <glyph glyph-name="five" unicode="5" horiz-adv-x="470" 
d="M434 108q-9 -50 -33 -91.5t-60 -71.5t-82.5 -46.5t-99.5 -16.5q-15 0 -41 3t-51 10t-42.5 18t-14.5 28q3 20 23 20q61 -15 112 -15q82 0 136.5 41.5t68.5 119.5q5 30 0 56.5t-26.5 45.5t-62.5 30t-108 11q-12 0 -25 -0.5t-27 -0.5q-17 0 -12 20l63 258q5 20 22 20h275
q19 0 16 -19l-5 -30q-2 -11 -8.5 -15t-14.5 -4h-226q-19 0 -22 -15l-36 -151h23q82 0 136 -15t83.5 -42.5t38 -65t0.5 -82.5z" />
    <glyph glyph-name="six" unicode="6" horiz-adv-x="491" 
d="M475 220q-9 -53 -33.5 -94t-58.5 -69t-74.5 -42.5t-82.5 -14.5t-76.5 15.5t-57 48.5t-30 83.5t4.5 121.5q14 80 40 152t66 126t95 86t129 32q49 0 94 -16q18 -6 15 -24q-7 -16 -20 -16q-6 0 -6 1q-42 9 -77 9q-43 0 -76 -15t-57 -37t-40 -48t-25.5 -48.5t-14 -38
t-4.5 -16.5q-1 -7 5 -7q4 0 12 4q47 16 104 16q39 0 73.5 -13t58.5 -39t34.5 -65.5t1.5 -91.5zM394 224q5 29 3 56.5t-13 48.5t-32 34t-54 13q-46 0 -115 -24q-13 -7 -21 -30t-12 -46l-5 -25q-33 -193 111 -190q51 1 87.5 43t50.5 120z" />
    <glyph glyph-name="seven" unicode="7" horiz-adv-x="485" 
d="M516 488q-2 -8 -5 -17.5t-10 -20.5l-314 -557q-7 -10 -17 -10h-78q-8 0 -7 7q0 4 6 12l350 547q5 7 5 11q1 9 -11 9h-254q-11 0 -19.5 -9t-16 -20.5t-15.5 -20.5t-18 -9q-19 0 -16 20l17 97q3 20 23 20h371q19 0 16 -20z" />
    <glyph glyph-name="eight" unicode="8" horiz-adv-x="496" 
d="M475 191q-8 -42 -30 -77.5t-55 -62t-74 -41.5t-86 -15q-47 0 -83 15.5t-59 42.5t-32 63.5t-2 78.5q18 100 112 155q5 3 7 6q0 2 -6 4q-48 56 -35 132q6 36 24 67t46 54.5t64.5 37t80.5 13.5q43 0 75.5 -13t52.5 -36.5t27.5 -54.5t1.5 -67q-13 -78 -88 -133q-5 -2 -5 -4
q-1 -4 4 -6q78 -54 60 -159zM425 493q10 54 -11.5 83t-75.5 29q-57 0 -89.5 -31t-42.5 -85q-9 -52 12.5 -82t75.5 -30q58 0 90 32.5t41 83.5zM385 189q11 57 -16.5 93.5t-84.5 36.5q-54 0 -92.5 -34.5t-48.5 -91.5q-11 -60 16 -97t82 -37t94 35t50 95z" />
    <glyph glyph-name="nine" unicode="9" horiz-adv-x="491" 
d="M485 279q-15 -88 -42.5 -161t-68 -125.5t-95 -81.5t-123.5 -29q-53 0 -94 16q-18 6 -15 25q4 15 19 15q23 0 43 -4.5t38 -4.5q43 0 75.5 14t57 35.5t41 47t26.5 48.5t14.5 39t5.5 20q1 6 -4 6t-12 -4q-59 -17 -104 -17q-41 0 -75.5 13t-58.5 39t-34 65t-1 92t33 94t58 69
t75.5 42.5t86.5 14.5q40 0 74 -15.5t56 -48.5t29 -83.5t-5 -120.5zM407 294q17 100 -9.5 146t-99.5 46q-51 0 -88.5 -41t-51.5 -122q-5 -29 -2.5 -56t14 -48.5t32 -34.5t52.5 -13q52 0 117 25q5 2 9.5 9.5t9 18t7.5 22t5 22.5z" />
    <glyph glyph-name="colon" unicode=":" horiz-adv-x="173" 
d="M159 231q-7 -43 -57 -43q-48 0 -41 43q7 42 56 42t42 -42zM125 42q-8 -42 -56 -42q-50 0 -42 42q9 43 57 43q50 0 41 -43z" />
    <glyph glyph-name="semicolon" unicode=";" horiz-adv-x="172" 
d="M158 230q-8 -42 -57 -42q-48 0 -40 42q7 43 55 43q49 0 42 -43zM121 24q-2 -14 -8 -28.5t-15.5 -26.5t-22.5 -19.5t-29 -7.5q-24 0 -21 17q1 7 6.5 10t11.5 5q1 1 2 1q4 0 5 1q11 3 16 10t7 13h-5q-48 0 -41 43q9 43 56 43q50 0 41 -43z" />
    <glyph glyph-name="less" unicode="&#x3c;" horiz-adv-x="377" 
d="M417 540q0 -3 -5 -10l-223 -245q-4 -8 -5 -12q-1 -5 1 -11l135 -244q3 -8 2 -12q-2 -6 -9 -6h-49q-16 0 -27 10l-166 254q-3 3 -3 11q1 3 5 11l262 251q10 10 25 10h49q9 0 8 -7z" />
    <glyph glyph-name="equal" unicode="=" horiz-adv-x="456" 
d="M461 338q-5 -23 -29 -23h-331q-12 0 -18 6t-3 17q5 23 29 23h331q24 0 21 -23zM437 205l-1 -3q-2 -5 -3 -6l1 3v-2l-4 -5l-5 -3l-4 -1q-2 -2 -5 -2h-4h-3h-331h-8l-4 2q-1 1 -2 1q-3 0 -3 1l-3 4q-3 5 -2 11l1 4v3q4 17 20 19q1 1 9 1h331h4l9 -3q6 -2 6 -6q2 -2 2 -4v-2
q1 -1 0 -5v-3z" />
    <glyph glyph-name="greater" unicode="&#x3e;" horiz-adv-x="379" 
d="M372 275q0 -6 -5 -11l-256 -254q-14 -10 -32 -10h-49q-10 0 -8 6t7 12l220 244q4 3 6 12q2 5 -1 11l-138 245q-1 3 -1 9q2 8 11 8l49 -1q18 0 24 -9l172 -252q3 -4 1 -10z" />
    <glyph glyph-name="question" unicode="?" horiz-adv-x="434" 
d="M473 532q-11 -60 -47.5 -107.5t-90.5 -78.5q-65 -38 -74 -93l-25 -135h-58l23 136q13 78 92 132q78 54 93 139q11 66 -16 103t-93 37q-41 0 -119 -20q-1 -1 -8 -1q-14 0 -14 15q3 15 25.5 27t51.5 20t57.5 12.5t42.5 4.5q51 0 85 -15.5t53 -42t24 -61t-2 -72.5zM237 39
q-8 -39 -51 -39q-45 0 -37 39q6 39 51 39q22 0 31 -10.5t6 -28.5z" />
    <glyph glyph-name="at" unicode="@" horiz-adv-x="818" 
d="M815 293q-20 -115 -70.5 -174.5t-117.5 -59.5q-103 0 -118 48q-83 -40 -135 -40q-33 0 -56 14.5t-35.5 41t-15 62.5t5.5 79q8 46 26 86t43.5 68.5t58 45t69.5 16.5q38 0 87 -23q-1 1 0 7q3 23 41 23q40 0 36 -25l-53 -306q-8 -36 55 -36q67 0 97 168q10 60 5 117
t-31 101.5t-75 71t-125 26.5q-56 0 -112.5 -22t-105.5 -65.5t-85.5 -107.5t-51.5 -147q-10 -57 1 -113t45.5 -101t93.5 -72.5t145 -27.5q48 0 103 7.5t121 24.5q2 1 11 1q15 0 17 -20q-5 -9 -13.5 -17t-21.5 -12q-73 -22 -136 -32t-118 -10q-94 0 -163 31t-111 82.5
t-57.5 117.5t-3.5 136q17 97 62 173.5t106.5 129.5t134.5 80.5t147 27.5q61 0 112.5 -17.5t90.5 -46.5t64 -67t33 -80t7.5 -83t-7.5 -81zM546 405q-47 15 -81 15q-29 0 -49.5 -11t-34 -29.5t-21.5 -43.5t-13 -52q-5 -25 -5.5 -52t5.5 -49.5t21.5 -37t43.5 -14.5q27 0 90 20z
" />
    <glyph glyph-name="A" unicode="A" horiz-adv-x="640" 
d="M608 15q-3 -15 -22 -15h-155q-21 0 -18 15q1 7 10 12t20 9.5t20 9t10 10.5v6l-15 115q-2 18 -21 18h-218q-23 0 -32 -18l-51 -114l-2 -6q0 -1 -1 -2q-1 -6 6.5 -10t16.5 -8t16.5 -9t6.5 -13q-3 -15 -23 -15h-137q-19 0 -16 15q1 9 11 13.5t22 9t23.5 10.5t16.5 17
l296 588q11 20 31 20h38q19 0 21 -18l90 -592q3 -20 31 -24q27 -10 25 -24zM445 262l-45 301q-1 10 -5 10q-3 0 -9 -10l-155 -301q-3 -8 -3 -9q-2 -9 12 -9h195q10 0 10 8v10z" />
    <glyph glyph-name="B" unicode="B" 
d="M531 186q-33 -186 -261 -186h-231q-19 0 -16 15q1 9 11 14t21.5 9t21.5 9.5t12 15.5l95 532q2 11 -6 17.5t-18.5 11.5t-19 10.5t-6.5 14.5q3 15 22 15h181q239 0 207 -176q-17 -95 -94 -138q103 -37 81 -164zM456 488q21 122 -128 125l-47 1q-18 0 -21 -16l-37 -215
q-5 -20 15 -20h63q67 0 105.5 32.5t49.5 92.5zM452 182q23 131 -127 131h-98q-17 0 -20 -17l-40 -228q-3 -18 17 -18h95q150 0 173 132z" />
    <glyph glyph-name="C" unicode="C" horiz-adv-x="524" 
d="M475 34q-87 -39 -170 -39q-286 0 -226 337q30 172 115.5 254.5t229.5 82.5q88 0 156 -40l-15 -87q-6 -29 -20 -29t-19 29l-5 29q-19 49 -97 49q-46 0 -88.5 -18.5t-77.5 -54.5t-61 -90t-38 -125q-13 -71 -6 -125t29.5 -90t58.5 -54.5t82 -18.5q77 0 113 49l16 29
q14 29 30 29q14 0 9 -29z" />
    <glyph glyph-name="D" unicode="D" horiz-adv-x="592" 
d="M596 332q-59 -332 -332 -332h-225q-19 0 -16 15q1 9 11 14t21.5 9t21.5 9.5t12 15.5l95 537q2 10 -6 16t-18.5 10t-19 9t-6.5 14q3 15 23 15h223q275 0 216 -332zM513 332q25 142 -13 212.5t-129 70.5h-87q-20 0 -23 -18l-93 -528q-3 -20 19 -20h86q91 0 152.5 70.5
t87.5 212.5z" />
    <glyph glyph-name="E" unicode="E" 
d="M502 21q-5 -21 -25 -21h-436q-21 0 -18 15q1 9 11 14t21.5 9t21.5 9.5t12 15.5l96 537q2 11 -6.5 16t-19 8.5t-19 8.5t-6.5 16q3 15 22 15h439q20 0 17 -20l-12 -68q-4 -19 -19 -19q-9 0 -12.5 9t-6 20t-6 20t-12.5 9h-261q-19 0 -22 -18l-38 -216q-3 -20 18 -20h113
q9 0 16 9t13.5 20.5t13 20.5t15.5 9q15 0 12 -20l-22 -124q-4 -22 -19 -22q-9 0 -12.5 9t-6 20.5t-6.5 20.5t-13 9h-113q-21 0 -25 -22l-39 -225q-3 -17 14 -17h260q11 0 18.5 9t14 20t13 20t15.5 9q14 0 11 -19z" />
    <glyph glyph-name="F" unicode="F" horiz-adv-x="533" 
d="M600 576q-4 -19 -18 -19q-9 0 -12.5 9t-6.5 20t-7 20t-14 9h-255q-23 0 -26 -19l-38 -216q-3 -19 19 -19h113q9 0 15.5 9t13 20.5t13 20.5t15.5 9q15 0 12 -19l-23 -129q-3 -18 -18 -18q-9 0 -12.5 9t-6 20.5t-6.5 20.5t-13 9h-113q-21 0 -24 -20l-41 -231
q-2 -9 6.5 -14.5t19 -10t18.5 -9t7 -13.5q-3 -15 -23 -15h-154q-21 0 -18 15q1 8 11 13t22 9.5t22 10t12 14.5l95 541q1 9 -7 13.5t-18.5 9t-19 9.5t-6.5 14q3 15 22 15h444q15 0 12 -19z" />
    <glyph glyph-name="G" unicode="G" horiz-adv-x="598" 
d="M592 278q-2 -9 -11.5 -14t-21.5 -9.5t-22 -10t-12 -15.5l-33 -190q-27 -10 -50.5 -18t-46.5 -13.5t-47.5 -8.5t-53.5 -3q-275 0 -215 336q58 336 334 336q33 0 59 -3t47.5 -8.5t39.5 -13.5t36 -18l-17 -96q-3 -21 -18 -21q-14 0 -19 29l-5 29q-9 24 -34 38.5t-84 14.5
q-48 0 -90.5 -17.5t-77.5 -53t-60 -89.5t-38 -127q-13 -72 -6.5 -126t29 -90t58.5 -53.5t83 -17.5q52 0 79 14t32 39l24 133q1 9 -7 14t-18 9.5t-18.5 9.5t-6.5 14q3 15 23 15h153q18 0 15 -15z" />
    <glyph glyph-name="H" unicode="H" horiz-adv-x="661" 
d="M609 15q-3 -15 -25 -15h-153q-21 0 -18 15q1 9 11.5 13.5t22 9t21.5 9.5t12 14l41 235q3 17 -13 17h-277q-20 0 -23 -20l-41 -231q-2 -10 6.5 -15t19 -9t18.5 -9t7 -14q-3 -15 -21 -15h-156q-21 0 -18 15q1 9 11 14t22 9t22 9t12 15l95 540q2 9 -6.5 14.5t-19 9.5t-19 9
t-6.5 14q3 15 23 15h157q18 0 15 -15q-2 -9 -11.5 -14t-21.5 -9t-22 -9.5t-12 -15.5l-39 -219q-3 -21 17 -21h277q16 0 19 18l40 225q1 8 -7.5 13t-19 9t-19 9t-6.5 14q3 15 25 15h154q19 0 16 -15q-2 -9 -11.5 -14t-21 -9.5t-21.5 -9.5t-12 -15l-95 -539q-3 -19 26 -23
q27 -9 25 -24z" />
    <glyph glyph-name="I" unicode="I" horiz-adv-x="271" 
d="M219 15q-5 -15 -24 -15h-155q-20 0 -17 15q2 11 12 16t21.5 8t21.5 7.5t12 15.5l96 542q1 8 -7.5 13t-19 9t-19 9t-6.5 14q3 15 24 15h154q20 0 17 -15q-1 -15 -33 -24q-31 -5 -34 -24l-95 -538q-2 -11 6.5 -16t19.5 -8.5t19.5 -8t6.5 -15.5z" />
    <glyph glyph-name="J" unicode="J" horiz-adv-x="358" 
d="M417 649q-2 -9 -11.5 -14t-21.5 -9t-22 -9.5t-12 -15.5l-82 -464q-7 -42 -19 -69t-29.5 -42.5t-40.5 -22t-52 -6.5q-16 0 -34.5 2t-33.5 7t-24.5 14t-6.5 24q3 20 16 20q18 0 33 -4.5t29 -4.5q69 0 81 62l85 483q3 21 -24 25q-28 9 -26 24q3 15 23 15h156q19 0 16 -15z
" />
    <glyph glyph-name="K" unicode="K" horiz-adv-x="592" 
d="M560 15q-3 -15 -23 -15h-78q-19 0 -35 14l-200 272q-8 11 -12 11t-5 -9l-40 -227q-2 -9 6.5 -14t19 -9t19 -9t7.5 -14q-5 -15 -23 -15h-156q-20 0 -17 15q1 9 11 14t22 9t22 9t12 15l95 541q1 9 -7 13.5t-18.5 9t-19 9.5t-6.5 14q3 15 22 15h157q19 0 16 -15
q-2 -9 -11.5 -14t-21.5 -9t-22 -9.5t-12 -14.5l-35 -200q-1 -10 2 -10q6 0 17 10l227 210q4 4 4 7q1 3 -4.5 5.5t-11.5 5.5t-11 7.5t-4 11.5q3 15 24 15h126q20 0 17 -15q-2 -9 -12 -14t-23.5 -9.5t-26 -9t-18.5 -11.5l-242 -223q-6 -6 -8 -14q-1 -10 6 -20l206 -286
q7 -11 19 -16t22.5 -9t17.5 -8.5t6 -13.5z" />
    <glyph glyph-name="L" unicode="L" horiz-adv-x="514" 
d="M482 17q-3 -17 -23 -17h-419q-20 0 -17 15q1 9 11 14t22 9t22 9t12 15l95 539q2 10 -6.5 15.5t-18.5 10t-18.5 9.5t-6.5 14q2 14 23 14h156q18 0 16 -14q-2 -9 -12 -14t-22 -9.5t-22 -9.5t-12 -14l-94 -534q-3 -19 17 -19h241q9 0 15.5 9t13 20.5t13 20.5t15.5 9
q15 0 12 -17z" />
    <glyph glyph-name="M" unicode="M" horiz-adv-x="778" 
d="M726 15q-3 -15 -24 -15h-153q-21 0 -18 15q1 9 11 14t21.5 9t21.5 9.5t12 15.5l82 465q1 7 -1 7q-3 0 -14 -20l-257 -444q-20 -32 -38 -32q-21 0 -27 33l-98 462q-5 21 -7 21q-3 0 -4 -9l-85 -482q-2 -11 6.5 -16.5t19 -9.5t18.5 -9t7 -14q-3 -15 -23 -15h-136
q-20 0 -17 15q1 9 11 14t22 9t22 9t12 15l95 540q2 9 -6.5 14.5t-19 9.5t-19 9t-6.5 14q3 15 24 15h123q19 0 26 -31l93 -463q2 -8 5 -8q2 0 7 8l273 463q18 31 39 31h98q18 0 15 -15q-1 -15 -34 -24q-30 -5 -33 -25l-95 -536q-2 -11 6.5 -16.5t19 -9.5t18.5 -9t7 -14z" />
    <glyph glyph-name="N" unicode="N" horiz-adv-x="621" 
d="M680 649q-2 -9 -11.5 -14t-21 -9t-21.5 -9.5t-12 -14.5l-102 -582q-5 -20 -25 -20h-46q-21 0 -28 19l-174 487q-5 12 -8 12t-4 -10l-79 -445q-2 -10 6.5 -15.5t19 -9.5t18.5 -9t7 -14q-3 -15 -22 -15h-137q-20 0 -17 15q1 9 11 14t22 9t22 9.5t12 15.5l94 532
q2 11 -6 17.5t-18.5 11.5t-19 10.5t-6.5 14.5q3 15 23 15h98q20 0 27 -19l181 -495q3 -11 8 -11q2 0 4 11l80 451q3 20 -25 24q-28 9 -26 24q3 15 24 15h134q21 0 18 -15z" />
    <glyph glyph-name="O" unicode="O" horiz-adv-x="612" 
d="M616 332q-30 -168 -111 -252t-211 -84h-13q-262 0 -202 336q59 336 321 336h13q130 0 181 -84t22 -252zM538 332q23 136 -16 208t-124 79q-44 -3 -82.5 -23t-70 -56t-54 -88.5t-34.5 -119.5q-24 -136 15.5 -208t124.5 -79q43 3 81.5 23t70 56t54.5 88t35 120z" />
    <glyph glyph-name="P" unicode="P" horiz-adv-x="514" 
d="M545 486q-17 -91 -82 -138t-180 -47h-54q-20 0 -23 -18l-39 -220q-3 -20 26 -24q28 -5 25 -24q-3 -15 -22 -15h-156q-20 0 -17 15q2 11 12 16t21.5 8t21.5 8t12 16l95 539q2 9 -6.5 14.5t-19 9.5t-19 9t-6.5 14q3 15 23 15h193q226 0 195 -178zM466 482q12 66 -20 97
t-107 34l-52 2q-21 2 -26 -18l-40 -229q-3 -18 16 -18l56 1q75 2 118 33t55 98z" />
    <glyph glyph-name="Q" unicode="Q" horiz-adv-x="612" 
d="M616 332q-12 -66 -35 -120t-52.5 -94t-63.5 -65.5t-67 -34.5q-9 -4 -9 -7q-1 -3 3 -9q59 -41 131 -41q17 0 14 -19q-5 -20 -21 -20q-60 0 -112.5 15.5t-97.5 49.5q-8 6 -13.5 8t-11.5 1q-262 0 -202 336q59 336 321 336h13q130 0 181 -84t22 -252zM538 332
q23 136 -16 208t-124 79q-44 -3 -82.5 -23t-70 -56t-54 -88.5t-34.5 -119.5q-24 -136 15.5 -208t124.5 -79q43 3 81.5 23t70 56t54.5 88t35 120z" />
    <glyph glyph-name="R" unicode="R" 
d="M501 15q-3 -15 -24 -15h-59q-19 0 -28 19l-109 265q-8 17 -23 17h-29q-20 0 -23 -18l-39 -220q-3 -20 26 -24q27 -9 25 -24q-3 -15 -22 -15h-156q-20 0 -17 15q1 9 11 14t22 9t22 9.5t12 15.5l95 539q2 9 -6.5 14.5t-19 9.5t-19 9t-6.5 14q3 15 23 15h204
q100 0 149.5 -45t34.5 -133q-7 -37 -27 -68.5t-46.5 -55t-55.5 -37t-53 -13.5q-11 -3 -12 -10q-1 -6 2 -11l97 -232q4 -9 12.5 -14t17.5 -9t15.5 -8.5t5.5 -12.5zM466 482q12 66 -20 97t-107 34l-52 2q-21 2 -26 -18l-40 -229q-3 -18 16 -18l56 1q75 2 118 33t55 98z" />
    <glyph glyph-name="S" unicode="S" horiz-adv-x="464" 
d="M442 186q-9 -50 -30.5 -86.5t-52.5 -60t-69.5 -35t-80.5 -11.5q-38 0 -81 10t-94 33l9 96l1 4q3 17 16 17q20 0 23 -20l7 -39q14 -18 44 -34t78 -16q66 0 103 34.5t48 97.5q6 34 -20.5 68t-96.5 66q-71 32 -106 78.5t-24 109.5q7 41 27 73t49.5 53.5t66 33t76.5 11.5
q35 0 71.5 -9.5t74.5 -30.5l-8 -96q-2 -11 -6.5 -16t-15.5 -5q-15 0 -18 20l-6 39q-15 17 -38.5 31.5t-59.5 14.5q-58 0 -91.5 -30.5t-41.5 -78.5q-15 -80 123 -144q71 -32 102.5 -75t20.5 -103z" />
    <glyph glyph-name="T" unicode="T" horiz-adv-x="514" 
d="M581 576q-4 -19 -19 -19q-9 0 -12.5 9t-6 20t-6.5 20t-14 9h-112q-19 0 -22 -20l-94 -531q-3 -21 26 -25q27 -10 25 -24q-3 -15 -23 -15h-156q-19 0 -16 15q1 8 11.5 13t22 9.5t21.5 10t12 15.5l94 532q3 20 -18 20h-122q-10 0 -17 -9t-13.5 -20t-13 -20t-15.5 -9
q-15 0 -11 19l12 69q3 19 24 19h438q19 0 16 -19z" />
    <glyph glyph-name="U" unicode="U" horiz-adv-x="621" 
d="M680 648q-1 -8 -11 -13t-21.5 -9.5t-22 -10t-11.5 -14.5l-67 -377q-10 -56 -33.5 -98t-58 -70t-78.5 -42t-94 -14q-97 0 -140 58t-23 176l65 367q2 10 -6.5 15.5t-19 9.5t-19 9t-6.5 14q3 15 23 15h156q19 0 16 -15q-2 -9 -11.5 -14t-21.5 -9t-22 -9.5t-12 -15.5
l-68 -386q-28 -160 124 -157q77 2 117 42.5t53 113.5l68 387q1 9 -6.5 14.5t-18 10t-19 9.5t-8.5 13q3 16 23 16l137 -1q19 0 16 -15z" />
    <glyph glyph-name="V" unicode="V" horiz-adv-x="616" 
d="M695 649q-2 -9 -11 -14t-20 -9t-22 -9.5t-16 -16.5l-293 -579q-11 -21 -30 -21t-25 20l-108 581q-2 10 -11.5 15t-20 9.5t-18.5 9.5t-6 14q3 15 23 15h168q19 0 16 -15q-2 -9 -11 -14t-20 -8.5t-20.5 -7.5t-10.5 -11q0 -3 1 -4l73 -428q3 -20 8 -20q3 0 11 20l221 426
q2 2 2 7q1 7 -5.5 11t-14.5 8t-15 8.5t-6 12.5q3 15 23 15h117q24 0 21 -15z" />
    <glyph glyph-name="W" unicode="W" horiz-adv-x="889" 
d="M968 649q-2 -9 -11 -14t-21 -9.5t-23 -10t-15 -15.5l-272 -579q-11 -21 -32 -21q-22 0 -23 22l-42 442q-2 20 -8 20q-5 0 -14 -21l-214 -442q-11 -21 -30 -21q-21 0 -25 21l-68 580q-1 9 -10.5 14.5t-20 10t-19 9.5t-6.5 14q3 15 23 15h167q19 0 16 -15q-1 -8 -10.5 -13
t-20 -9t-20 -8t-10.5 -11q0 -3 1 -4l38 -424q2 -20 5 -20t14 20l200 418q6 11 15.5 19t25.5 8q15 0 22.5 -7t8.5 -15l36 -425q2 -20 7 -20t14 20l199 425q1 1 3 7q1 7 -6 11t-15 7.5t-15 8t-6 12.5q3 15 23 15h117q25 0 22 -15z" />
    <glyph glyph-name="X" unicode="X" horiz-adv-x="642" 
d="M701 649q-1 -8 -11 -13.5t-22.5 -10t-24.5 -9.5t-18 -12l-207 -242q-5 -5 -8 -10.5t-4 -10.5t2 -13l114 -267q3 -9 14 -13.5l22 -9t19 -9.5t7 -14q-3 -15 -23 -15h-170q-19 0 -16 15q1 13 33 24l15 5q8 0 10 5q-1 -1 -1 7l-84 196q-4 10 -9 10q-2 0 -7 -5l-167 -201
q-4 -4 -4 -7q-2 -5 9 -5l13 -5q28 -10 26 -24q-3 -15 -23 -15h-146q-20 0 -17 15q1 9 11 14t22 9t24.5 8.5t18.5 12.5l198 238q11 12 12 23q1 6 0 12l-108 271q-3 7 -13.5 12t-21.5 10t-19.5 10.5t-7.5 13.5q3 15 23 15h171q19 0 16 -15q-2 -14 -32 -22l-17 -4q-9 -4 -9 -7
q-1 -2 1 -9l80 -206q1 -7 6 -7q4 0 10 7l175 206q4 4 4 8q2 5 -8 5l-13 5q-14 5 -21 9.5t-5 14.5q4 15 23 15h141q20 0 17 -15z" />
    <glyph glyph-name="Y" unicode="Y" horiz-adv-x="572" 
d="M651 649q-2 -9 -11.5 -14t-22 -9t-25 -9t-19.5 -15l-193 -273q-16 -22 -16 -33l-41 -232q-2 -10 6.5 -15.5t19 -10t18.5 -9.5t7 -14q-3 -15 -23 -15h-156q-19 0 -16 15q1 9 11 14t22 9.5t21.5 10t11.5 14.5l41 234q3 14 -4 33l-107 272q-3 9 -13.5 14t-21.5 9.5
t-19.5 9.5t-6.5 14q3 15 23 15h165q20 0 17 -15q-1 -7 -9.5 -10.5t-23.5 -8.5l-15 -5q-6 -1 -8 -9q-2 -5 1 -11l81 -217q3 -8 8 -8q4 0 9 8l155 217q4 8 4 10q1 6 -6 6l-15 4q-14 4 -20 11t-5 13q3 15 23 15h136q20 0 17 -15z" />
    <glyph glyph-name="Z" unicode="Z" horiz-adv-x="530" 
d="M479 20q-5 -20 -24 -20h-415q-21 0 -16 20l3 19q2 10 8 19t13 17l425 529q1 1 1 4q1 4 -5 4h-242q-15 0 -24.5 -9t-16.5 -20t-13 -20t-15 -9q-16 0 -10 29l11 62q3 19 23 19h375q20 0 17 -19l-4 -20q-2 -11 -8 -20t-13 -17l-425 -529q-2 -5 -2.5 -6t0.5 1q-2 -3 6 -3h281
q15 0 24.5 9t16 20t13 20t16.5 9q5 0 8 -7.5t1 -21.5z" />
    <glyph glyph-name="bracketleft" unicode="[" horiz-adv-x="193" 
d="M138 0h-118l127 723h118l-10 -59h-59l-107 -605h59z" />
    <glyph glyph-name="backslash" unicode="\" horiz-adv-x="348" 
d="M293 0h-58l-88 723h59z" />
    <glyph glyph-name="bracketright" unicode="]" horiz-adv-x="193" 
d="M138 0h-118l10 59h59l107 605h-59l10 59h118z" />
    <glyph glyph-name="asciicircum" unicode="^" horiz-adv-x="273" 
d="M313 541h-19l-67 74l-93 -74h-19l101 122h40z" />
    <glyph glyph-name="underscore" unicode="_" horiz-adv-x="563" 
d="M508 0h-488l7 40h488z" />
    <glyph glyph-name="grave" unicode="`" horiz-adv-x="249" 
d="M289 540h-26l-111 77q-21 15 -18 31q2 12 11 19.5t22 7.5q8 0 14.5 -4t17.5 -18z" />
    <glyph glyph-name="a" unicode="a" horiz-adv-x="464" 
d="M422 17q-5 -17 -33 -17q-58 0 -82 34q-72 -34 -140 -34q-72 0 -103.5 36.5t-20.5 96.5q7 41 30 70.5t57.5 48t79.5 27.5t98 9h16q19 0 22 20l6 35q10 54 -10 82.5t-68 28.5q-30 0 -58.5 -3.5t-56.5 -11.5q-20 2 -17 15q3 14 24 23q41 19 115 19q91 0 126.5 -42t21.5 -120
l-47 -267q-2 -13 4.5 -19t15 -10t15 -8t5.5 -13zM333 235q4 19 -15 19q-100 -4 -145.5 -33.5t-55.5 -84.5q-3 -17 -1 -33.5t12 -29.5t28 -21t47 -8q42 0 79 10q19 4 24 24z" />
    <glyph glyph-name="b" unicode="b" horiz-adv-x="521" 
d="M512 262q-9 -51 -31.5 -98t-57.5 -83.5t-82 -58.5t-105 -22q-67 0 -151 39l108 606q2 11 -7 14t-19.5 4.5t-19.5 4t-7 11.5q1 7 11 13.5t23.5 11t27 7t22.5 2.5h29q30 0 26 -19l-38 -215q-1 -13 6 -13q4 0 12 4q45 22 95 22q44 0 77.5 -18t54 -49.5t28 -73t-1.5 -89.5z
M436 261q14 81 -12.5 129t-90.5 48q-9 0 -26 -1.5t-34.5 -6t-31 -12.5t-15.5 -20l-56 -316q-2 -12 6.5 -18.5t21 -9.5t25.5 -3.5t21 -0.5q31 0 62 13.5t56.5 40t45 66t28.5 91.5z" />
    <glyph glyph-name="c" unicode="c" horiz-adv-x="437" 
d="M390 46q-2 -11 -17.5 -20t-37 -15.5t-44.5 -10t-39 -3.5q-54 0 -94 17.5t-64.5 49.5t-32.5 76t1 97q9 51 32.5 97.5t58.5 82t80 56t98 20.5q43 0 114 -20l-13 -78q-5 -21 -23 -21q-10 0 -15 9t-9 21t-9 23.5t-14 16.5q-11 6 -22.5 8t-22.5 2q-28 0 -56 -16t-52 -45
t-42 -68.5t-26 -87.5q-8 -44 -2 -80t24 -62t46.5 -40t66.5 -14q40 0 96 18q21 0 18 -13z" />
    <glyph glyph-name="d" unicode="d" horiz-adv-x="502" 
d="M460 17q-3 -17 -32 -17q-60 0 -81 39q-42 -20 -77.5 -31t-67.5 -11q-50 0 -80.5 22.5t-46.5 55.5t-19.5 71t2.5 68q8 45 28.5 94.5t53.5 91.5t78 69t102 27q32 0 76 -11q1 0 1.5 -0.5t1.5 -0.5q13 0 16 16l26 145q1 10 -6.5 13.5t-17.5 5t-18.5 4t-7.5 11.5
q2 7 12.5 13.5t23.5 11t26.5 7t21.5 2.5h40q18 0 15 -20l-110 -625q-3 -14 3 -20.5t14.5 -10t15.5 -7.5t7 -13zM405 412q1 15 -12 22q-31 16 -66 16q-29 0 -57.5 -15.5t-52.5 -44.5t-42.5 -70t-27.5 -91q-15 -88 11.5 -134.5t80.5 -46.5q9 0 26.5 1.5t35 6t31.5 12.5t16 20z
" />
    <glyph glyph-name="e" unicode="e" horiz-adv-x="460" 
d="M449 252q-2 -15 -18 -15h-285q-8 -42 -4.5 -77.5t17.5 -61t38 -40t57 -14.5q45 0 110 25q19 0 18 -13q-2 -12 -20.5 -22.5t-42.5 -18t-47.5 -12t-35.5 -4.5q-48 0 -85 18.5t-59.5 52t-30 79.5t2.5 100q9 53 32.5 98.5t57 79t75.5 52.5t88 19q88 0 120.5 -64t11.5 -182z
M388 296q10 85 -9.5 121.5t-79.5 36.5q-53 0 -85.5 -42.5t-53.5 -115.5q-3 -20 16 -20h190q20 0 22 20z" />
    <glyph glyph-name="f" unicode="f" horiz-adv-x="299" 
d="M398 644q-4 -19 -24 -19q-54 0 -85.5 -29t-43.5 -98q-1 -10 7 -10h49q20 0 16 -24q-4 -25 -24 -25h-50q-9 0 -10 -10l-65 -366q-2 -10 6 -15.5t18.5 -9.5t18.5 -9t7 -14q-3 -15 -22 -15h-156q-20 0 -17 15q1 9 11 14t22 9t22 9.5t12 15.5l63 358q3 18 -17 18h-19
q-19 0 -15 25q4 24 24 24h29q11 0 12 10q15 88 67.5 127t146.5 39q20 0 17 -20z" />
    <glyph glyph-name="g" unicode="g" horiz-adv-x="500" 
d="M432 -75q-21 -120 -168 -120h-161q-20 0 -40 4t-35 15t-22.5 29.5t-2.5 48.5t22 50.5t47 36.5q22 11 30 10q10 0 15 -5.5t4 -10.5t-8 -10.5t-16 -14t-17 -19t-11 -24.5q-4 -23 13.5 -37.5t49.5 -14.5h142q89 0 99 58q7 38 -18.5 58.5t-76.5 20.5h-78q-69 0 -98.5 25
t-20.5 79q11 54 54 76q-36 21 -49 59t-5 86q14 81 73 126t159 45q19 0 36.5 -2.5t34.5 -9.5l16 -6l102 17q19 0 16 -20q-4 -19 -23 -19l-43 -14q18 -22 21.5 -53.5t-1.5 -61.5q-14 -78 -69 -125t-155 -47q-15 0 -31 2t-34 6l-13 -9q-11 -8 -17 -14t-8 -17q-5 -23 14 -34
t55 -11h78q167 0 140 -153zM393 329q4 24 2.5 46t-11.5 39t-31 27t-55 10q-23 0 -53 -11q-23 -9 -38 -20.5t-24 -25.5t-14 -31t-9 -38q-4 -23 -3.5 -45.5t9.5 -40.5t29.5 -29.5t58.5 -11.5q36 0 60.5 11.5t40.5 30t25 42t13 47.5z" />
    <glyph glyph-name="h" unicode="h" 
d="M511 15q-3 -15 -23 -15h-156q-20 0 -17 15q1 9 11.5 14t22.5 9.5t22 10t12 14.5l47 266q4 21 0 40.5t-15.5 34.5t-30.5 24t-45 9q-46 0 -110 -30l-61 -344q-2 -10 6 -15.5t18.5 -9.5t18.5 -9t7 -14q-3 -15 -22 -15h-156q-20 0 -17 15q1 9 11 14t22 9t22 9.5t12 15.5
l103 582q2 11 -7 14t-19.5 4.5t-19.5 4t-7 11.5q1 7 11 13.5t23.5 11t27 7t22.5 2.5h39q19 0 16 -20l-43 -247q76 48 144 48q78 0 110 -43.5t18 -121.5l-48 -265q-2 -10 6.5 -15.5t19 -10t18.5 -9.5t7 -14z" />
    <glyph glyph-name="i" unicode="i" horiz-adv-x="260" 
d="M260 585q-6 -38 -51 -38q-43 0 -37 39t51 39q44 0 37 -40zM218 15q-3 -15 -22 -15h-156q-20 0 -17 15q2 11 12 17.5t22 12t22.5 11.5t12.5 17l61 347q2 11 -6.5 14.5t-19.5 5t-20 3.5t-7 11q1 7 11 13.5t23 11t27 7t24 2.5h38q20 0 17 -19l-70 -395q-2 -11 6 -17.5
t17.5 -12.5t17.5 -12.5t7 -16.5z" />
    <glyph glyph-name="j" unicode="j" horiz-adv-x="214" 
d="M262 586q-6 -39 -50 -39q-43 0 -37 39q4 20 15.5 29.5t35.5 9.5q43 0 36 -39zM149 -59q-12 -66 -46 -102.5t-89 -36.5q-29 0 -50.5 5.5t-35 12.5t-20 14t-6.5 10q4 19 24 19q21 -7 56 -7q73 0 85 66l88 498q2 10 -6 13.5t-18.5 5t-19 4t-8.5 11.5q1 8 11.5 14.5t24 11
t27 6.5t21.5 2h39q19 0 16 -19z" />
    <glyph glyph-name="k" unicode="k" horiz-adv-x="514" 
d="M473 20q-5 -20 -23 -20h-59q-19 0 -31 15l-155 187q-5 5 -7 5q-4 0 -7 -12l-23 -132q-2 -10 6 -15.5t18.5 -9.5t18.5 -9t7 -14q-3 -15 -22 -15h-156q-20 0 -17 15q1 9 11 14t22 9t22 9.5t12 15.5l103 582q2 11 -7 14t-19.5 4.5t-19.5 4t-7 11.5q1 7 11 13.5t23.5 11t27 7
t22.5 2.5h39q19 0 16 -20l-67 -381q-2 -12 2 -12q3 0 11 8l123 112q9 7 10 14q1 5 -5.5 9.5t-14.5 9t-14 10t-5 11.5q2 14 21 14h137q20 0 18 -14q-2 -9 -11.5 -15t-23 -11.5t-28 -11.5t-25.5 -16l-143 -129q-12 -10 -13 -19q-1 -5 4 -12l158 -198q4 -5 14 -10t20.5 -10
t18.5 -10.5t7 -11.5z" />
    <glyph glyph-name="l" unicode="l" horiz-adv-x="260" 
d="M218 15q-3 -15 -22 -15h-156q-20 0 -17 15q1 9 11 14t22 9t22 9.5t12 15.5l103 582q2 11 -7 14t-19.5 4.5t-19.5 4t-7 11.5q1 7 11 13.5t23.5 11t27 7t22.5 2.5h39q19 0 16 -20l-111 -630q-2 -10 6 -15.5t18.5 -9.5t18.5 -9t7 -14z" />
    <glyph glyph-name="m" unicode="m" horiz-adv-x="816" 
d="M774 15q-3 -15 -23 -15h-156q-19 0 -16 15q1 9 11 14t22 9t22 9.5t12 15.5l48 269q3 20 0 39.5t-13 35.5t-26.5 25.5t-40.5 9.5q-49 0 -117 -46q2 -14 1 -30t-4 -34l-48 -268q-2 -10 6.5 -15.5t18.5 -10t18 -9.5t7 -14q-3 -15 -22 -15h-157q-19 0 -16 15q1 9 11.5 14
t22 9.5t21.5 10t12 14.5l48 269q3 18 0.5 37t-11.5 35t-24 26t-36 10q-23 0 -53 -13t-66 -35l-58 -328q-2 -10 6.5 -15.5t18.5 -10t18 -9.5t7 -14q-3 -15 -22 -15h-156q-20 0 -17 15q1 9 11.5 14t22 9.5t21.5 10t12 14.5l63 357q2 11 -6.5 14.5t-19.5 5t-20 3.5t-7 11
q1 7 11 13.5t23 11t27 7t24 2.5h38q20 0 17 -19l-7 -36q41 30 79 47t73 17q37 0 64 -17t38 -43q94 62 165 62q73 0 103.5 -45.5t16.5 -121.5l-49 -269q-2 -10 6.5 -15.5t19 -9.5t18.5 -9t7 -14z" />
    <glyph glyph-name="n" unicode="n" 
d="M511 15q-3 -15 -23 -15h-156q-20 0 -17 15q1 9 11.5 14t22.5 9.5t22 10t12 14.5l48 269q3 18 0.5 37t-10.5 34t-23 24.5t-36 9.5q-26 0 -60 -15t-78 -41l-56 -317q-2 -10 6.5 -15.5t18.5 -10t18 -9.5t7 -14q-3 -15 -22 -15h-156q-20 0 -17 15q1 9 11.5 14t22 9.5t21.5 10
t12 14.5l63 357q2 11 -6.5 14.5t-19.5 5t-20 3.5t-7 11q1 7 11 13.5t23 11t27 7t24 2.5h38q20 0 17 -19l-9 -49q48 35 90 55t80 20q67 0 94 -45.5t14 -117.5l-49 -268q-2 -10 6.5 -15.5t19 -10t18.5 -9.5t7 -14z" />
    <glyph glyph-name="o" unicode="o" horiz-adv-x="495" 
d="M482 238q-9 -54 -32 -99t-56 -77.5t-75 -50.5t-90 -18q-47 0 -82.5 17.5t-57.5 50t-29.5 77.5t2.5 100q16 88 60 151.5t109 87.5q46 17 86 17q45 0 80.5 -17.5t57.5 -50.5t29.5 -80.5t-2.5 -107.5zM401 234q8 46 7.5 84.5t-11.5 66.5t-32.5 43.5t-55.5 15.5
q-29 0 -56 -13q-44 -20 -71 -71.5t-39 -121.5q-7 -40 -6 -74.5t12 -60.5t32.5 -41t56.5 -15q31 0 58 13.5t48 38.5t35.5 59t21.5 76z" />
    <glyph glyph-name="p" unicode="p" horiz-adv-x="522" 
d="M512 255q-9 -53 -31.5 -100t-54.5 -82t-71 -55t-82 -20q-26 0 -52.5 10.5t-55.5 36.5l-31 -177q-2 -10 6 -15.5t18 -10t18 -9.5t7 -14q-3 -15 -22 -15h-156q-20 0 -17 15q1 9 11.5 14t22.5 9.5t22 10t12 15.5l97 551q2 11 -7 14t-19.5 4.5t-19.5 4t-7 12.5q1 7 11 13.5
t23.5 11t27 7t22.5 2.5h39q20 0 17 -19l-3 -15q39 20 72 31t63 11q42 0 72.5 -19.5t48.5 -52.5t23 -76.5t-4 -92.5zM441 261q6 37 3.5 70.5t-14.5 59t-32.5 40.5t-48.5 15q-23 0 -53 -8.5t-66 -22.5l-57 -323q29 -24 52 -34t44 -10q32 0 60 16.5t50 45.5t38 68t24 83z" />
    <glyph glyph-name="q" unicode="q" horiz-adv-x="503" 
d="M436 -181q-3 -15 -22 -15h-147q-19 0 -16 15q1 9 10.5 14t21 9.5t21 10t11.5 15.5l29 164l-1 6q-57 -36 -122 -36q-44 0 -77.5 18.5t-54.5 49.5t-29 72.5t0 86.5q9 48 34 96t62.5 86.5t86 62.5t103.5 24q66 0 142 -49l-102 -581q-2 -9 6 -14.5t18.5 -10t18.5 -10t7 -14.5
zM411 412q2 12 -7.5 19t-23 11.5t-27.5 6t-21 1.5q-29 0 -60 -16.5t-58 -46.5t-47.5 -71t-29.5 -90q-7 -40 -1.5 -73t21 -56t40 -36t54.5 -13q10 0 26.5 2.5t33 8t29 13.5t14.5 20z" />
    <glyph glyph-name="r" unicode="r" horiz-adv-x="388" 
d="M419 376q-3 -14 -17 -14q-8 -1 -10 7.5t-9 21.5l-16 29q-16 16 -38 16t-48 -14.5t-57 -40.5l-56 -317q-2 -10 6.5 -15.5t18.5 -10t18 -9.5t7 -14q-3 -15 -22 -15h-156q-20 0 -17 15q1 9 11.5 14t22 9.5t21.5 10t12 14.5l63 357q2 11 -6.5 14.5t-19.5 5t-20 3.5t-7 11
q1 7 11 13.5t23 11t27 7t24 2.5h38q20 0 17 -19l-9 -49q34 35 68.5 54t69.5 19q21 0 57 -14l-7 -98v-5v0z" />
    <glyph glyph-name="s" unicode="s" horiz-adv-x="421" 
d="M390 136q-12 -69 -62 -103t-135 -34q-35 0 -72 8t-76 27l-1 102q3 16 27 16q14 0 16 -15l7 -44q6 -22 27 -37t60 -15q60 0 93 28t41 70q9 50 -110 97q-119 46 -102 141q11 57 59 88.5t126 31.5q30 0 60.5 -6.5t60.5 -21.5l1 -102q-3 -15 -22 -15t-21 14l-8 44
q-11 22 -25.5 36t-44.5 14q-48 0 -75 -21t-33 -55q-11 -59 108 -105q63 -24 86 -59.5t15 -83.5z" />
    <glyph glyph-name="t" unicode="t" horiz-adv-x="348" 
d="M321 43q-2 -12 -16.5 -20.5t-32.5 -14t-36.5 -8.5t-28.5 -3q-62 0 -89 37.5t-12 121.5l48 274q2 8 -7 10l-30 -1q-19 0 -15 25q5 26 24 25l19 -1q20 -2 23 19l14 79q1 9 5 22t11.5 25.5t18.5 21.5t27 9h10q20 0 17 -19l-26 -147q-1 -10 7 -10l79 1q19 0 15 -25
q-5 -24 -23 -24h-79q-11 0 -12 -10l-48 -274q-12 -66 4 -88.5t58 -22.5q29 0 57 14q2 0 3.5 0.5t3.5 0.5q14 0 11 -17z" />
    <glyph glyph-name="u" unicode="u" 
d="M513 30q-1 -8 -11.5 -14.5t-24 -11t-27 -7t-21.5 -2.5l-34 1q-24 0 -19 24l8 48q-90 -69 -162 -69q-70 0 -99 45.5t-15 121.5l45 254q2 11 -7 14t-19.5 4t-19.5 3.5t-7 12.5q1 7 11 13.5t23.5 11t29.5 7t30 2.5h29q20 0 17 -19l-54 -303q-3 -20 -0.5 -40t11.5 -35.5
t25 -25t39 -9.5q49 0 130 51l55 313q2 11 -7 14t-19.5 4t-19.5 3.5t-7 12.5q2 14 32.5 24t90.5 10q19 0 16 -19l-72 -406q-2 -11 6.5 -14.5t19.5 -5t19.5 -3.5t7.5 -10z" />
    <glyph glyph-name="v" unicode="v" horiz-adv-x="489" 
d="M553 474q-2 -9 -12 -14t-22.5 -10.5t-24.5 -12.5t-19 -20l-221 -417h-29l-83 417q-3 13 -13 20.5t-20.5 12.5t-18.5 10t-6 14q3 14 22 14h156q19 0 17 -14q-2 -8 -11 -13t-19.5 -9t-20 -9t-10.5 -12q0 2 0.5 0t0.5 -7l52 -286q3 -11 5 -11q4 0 9 11l145 286l2 6
q1 7 -6.5 12t-16.5 9.5t-16.5 9.5t-5.5 13q11 14 21 14l128 1q18 0 17 -15z" />
    <glyph glyph-name="w" unicode="w" horiz-adv-x="723" 
d="M787 474q-2 -9 -12 -14t-22.5 -10.5t-25 -12.5t-18.5 -20l-203 -417h-29l-49 333q-3 10 -7 10t-8 -10l-179 -333h-28l-64 417q-2 13 -12 20.5t-20.5 12.5t-19 10t-6.5 14q3 14 22 14h156q19 0 17 -14q-2 -8 -11 -13t-19.5 -9t-19.5 -9t-10 -12q-1 -6 0 -7l37 -267
q2 -11 5 -11q4 0 10 11l157 309q12 22 30 22t21 -23l48 -308q2 -11 5 -11q2 0 10 11l121 266l2 7q1 7 -6 12t-16 9.5t-16.5 9.5t-5.5 13q2 14 21 14h128q19 0 17 -14z" />
    <glyph glyph-name="x" unicode="x" horiz-adv-x="544" 
d="M492 15q-3 -15 -22 -15h-177q-19 0 -17 15q3 13 34 24l15 5q11 0 14 11q-1 -2 -1 7l-59 136l-13 -14q-8 -9 -21 -24t-28.5 -32.5t-31.5 -36.5t-30 -35q-4 -4 -4 -7q-2 -5 9 -5l14 -5q27 -9 25 -24q-3 -15 -23 -15h-136q-20 0 -18 14q2 9 11.5 14t22 9.5t25 9.5t20.5 14
l154 179l-75 185q-6 9 -18 14t-23.5 9.5t-19 10t-5.5 15.5q2 14 21 14h167q19 0 17 -14q-2 -8 -11 -13t-19.5 -9.5t-19.5 -8t-10 -7.5q0 2 0.5 1t0.5 -6l52 -128l108 128l2 5q1 4 -6.5 7.5t-16.5 7.5t-16.5 9t-6.5 13q3 16 23 16h137q18 0 18 -15q-3 -9 -13 -14.5t-22.5 -10
t-25 -10t-19.5 -13.5l-143 -168l95 -196q6 -9 18 -14t23 -9.5t18.5 -9.5t6.5 -14z" />
    <glyph glyph-name="y" unicode="y" horiz-adv-x="509" 
d="M558 474q-1 -6 -10.5 -10t-22.5 -9t-25.5 -12.5t-19.5 -20.5l-281 -535q-24 -46 -52.5 -64t-60.5 -19q-14 0 -30.5 4.5t-30 12t-22 18t-6.5 22.5q3 16 21 16q9 0 15.5 -4t14 -8.5t17 -8.5t25.5 -4q18 0 36 12t32 38l54 103l-70 417q-2 13 -12 20.5t-20.5 12t-19 8.5
t-6.5 11q3 14 22 14h161q19 0 17 -14q-1 -6 -10 -9.5t-20 -7.5t-20 -9t-10 -12q0 2 0.5 0t0.5 -7l44 -285q2 -11 5 -11q5 0 10 11l147 285l2 6q1 8 -6 13t-16.5 9t-17 7.5t-6.5 9.5q2 14 21 14l133 1q18 0 17 -15z" />
    <glyph glyph-name="z" unicode="z" horiz-adv-x="426" 
d="M352 0h-312q-21 0 -16 20q3 17 15 32l312 385q1 2 1.5 2.5t0.5 1.5t1 2q1 6 -12 6h-164q-11 0 -19.5 -9t-16 -20t-15.5 -20t-18 -9q-20 0 -17 19l34 78h312q19 0 16 -20q-3 -16 -16 -32l-310 -374q-3 -8 -3 -7q-2 -6 12 -6h165q10 0 18 9t16 20t16 20t19 9q19 0 16 -19z
" />
    <glyph glyph-name="braceleft" unicode="{" horiz-adv-x="339" 
d="M276 -44q-3 -15 -21 -15q-157 0 -125 186q33 185 -38 225q-9 5 -8 9q0 4 11 10q85 39 118 224q33 186 190 186q19 0 16 -14q-3 -15 -21 -15q-83 -7 -106 -132q-4 -25 -5.5 -55.5t-6.5 -54.5q-21 -121 -107 -144q-9 -3 -9 -5q-2 -2 7 -5q78 -21 56 -144
q-4 -24 -12.5 -54.5t-13.5 -55.5q-22 -123 59 -131q19 0 16 -15z" />
    <glyph glyph-name="bar" unicode="|" horiz-adv-x="134" 
d="M79 0h-59l127 723h59z" />
    <glyph glyph-name="braceright" unicode="}" horiz-adv-x="339" 
d="M348 361q-2 -5 -12 -9q-85 -39 -118 -225q-32 -186 -188 -186q-21 0 -18 15t23 15q82 7 104 131q5 24 6.5 54t6.5 54q23 125 107 146q7 3 9 5q0 1 -7 5q-77 22 -56 146q5 24 13 54t12 54q22 124 -57 132q-21 0 -18 15q3 14 23 14q156 0 123 -186q-33 -185 38 -224
q9 -5 9 -10z" />
    <glyph glyph-name="asciitilde" unicode="~" horiz-adv-x="480" 
d="M487 353q-37 -35 -68 -48t-59 -13q-12 0 -35 7.5t-48 16.5t-47.5 16.5t-33.5 7.5q-12 0 -25 -2.5t-28 -10t-33.5 -21t-41.5 -35.5l13 77q39 35 69.5 48t57.5 13q12 0 34.5 -7.5t47.5 -17t47.5 -17t34.5 -7.5q23 0 54 13.5t75 55.5z" />
    <glyph glyph-name="uni00A0" unicode="&#xa0;" 
 />
    <glyph glyph-name="exclamdown" unicode="&#xa1;" horiz-adv-x="163" 
d="M219 627q-4 -18 -16.5 -28.5t-34.5 -10.5q-45 0 -37 39q6 39 50 39t38 -39zM115 41q-5 -39 -51 -39q-43 0 -37 34l1 5l105 488q5 20 28 20t20 -20z" />
    <glyph glyph-name="cent" unicode="&#xa2;" horiz-adv-x="437" 
d="M390 46q-2 -11 -17.5 -20t-37 -15.5t-44.5 -10t-39 -3.5h-2l-5 -29q-3 -19 -23 -19t-15 20l5 31q-14 2 -28 5.5t-26 8.5q-61 27 -85.5 84.5t-10.5 138.5q7 38 22 74t37 66.5t50 55t61 39.5q16 7 32.5 12t34.5 7l7 41q3 20 22 20q20 0 17 -20l-7 -39q22 -1 48.5 -5.5
t58.5 -14.5l-13 -78q-5 -21 -23 -21q-10 0 -15 9t-9 21t-9 23.5t-14 16.5q-15 8 -31 9l-73 -412h18q40 0 96 18q21 0 18 -13zM221 50l70 400q-8 -2 -15 -4.5t-15 -7.5q-41 -23 -74 -76t-46 -125q-12 -66 6 -114t63 -68z" />
    <glyph glyph-name="sterling" unicode="&#xa3;" horiz-adv-x="466" 
d="M415 20q-5 -20 -23 -20h-352q-21 0 -16 20l6 38q3 10 11 21t17.5 23t20 25.5t18.5 30.5q6 13 13.5 40t12.5 56l2 11h-38q-20 0 -17 20q4 19 24 19h39l5 31h-39q-21 0 -16 20q3 19 23 19h39l3 16q13 78 36.5 130t55 84t69.5 45.5t82 13.5q11 0 27.5 -1.5t31.5 -6t25 -11.5
t8 -19q-3 -20 -23 -20q-17 3 -32 4t-29 1q-43 0 -71.5 -14.5t-47 -40.5t-29.5 -63t-19 -83l-3 -19l-4 -16h154q20 0 17 -19q-5 -20 -24 -20h-155l-6 -31h156q20 0 16 -19q-3 -20 -23 -20h-156q-7 -31 -13.5 -55t-12.5 -42q-8 -22 -16 -38.5t-16 -29.5q-13 -18 -16 -30
q-2 -11 18 -11h195q10 0 17.5 12t16 27t17.5 27t22 12q19 0 16 -20z" />
    <glyph glyph-name="currency" unicode="&#xa4;" horiz-adv-x="450" 
d="M431 202l-46 -40l-47 58q-20 -13 -45.5 -21.5t-50.5 -8.5q-23 0 -47 8t-39 22l-68 -58l-32 40l68 57q-11 19 -15 43t1 48q5 26 17.5 50t28.5 41l-48 58l46 39l48 -58q17 13 45 21.5t51 8.5q48 0 86 -30l67 58l32 -39l-67 -58q11 -20 14.5 -44t-0.5 -47q-5 -23 -17 -47
t-29 -44zM379 350q4 22 -1.5 41.5t-17.5 34.5t-30.5 23.5t-40.5 8.5q-23 0 -44 -8.5t-38.5 -23t-29.5 -34.5t-16 -42q-4 -21 1 -42t17 -35q13 -14 31 -22.5t41 -8.5q22 0 43.5 8.5t39 23.5t29.5 34.5t16 41.5z" />
    <glyph glyph-name="yen" unicode="&#xa5;" horiz-adv-x="612" 
d="M671 649q-2 -9 -11.5 -14t-22 -9t-25 -9t-19.5 -15l-162 -228h68q20 0 17 -19q-5 -20 -24 -20h-88l-4 -6q-5 -7 -8.5 -13.5t-5.5 -11.5h101q20 0 16 -19q-3 -20 -23 -20h-101l-36 -201q-2 -10 6.5 -15.5t19 -10t18.5 -9.5t7 -14q-3 -15 -23 -15h-156q-19 0 -16 15
q1 9 11 14t22 9.5t21.5 10t11.5 14.5l36 202h-94q-22 0 -17 20q4 19 24 19h93q0 5 -0.5 11.5t-4.5 14.5l-2 5h-81q-21 0 -16 20q3 19 23 19h59l-90 228q-3 9 -13.5 14t-21.5 9.5t-19.5 9.5t-6.5 14q3 15 23 15h165q20 0 17 -15q-1 -7 -9.5 -10.5t-23.5 -8.5l-15 -5
q-6 -1 -8 -9q-2 -5 1 -11l81 -217q3 -8 8 -8q4 0 9 8l155 217q4 8 4 10q1 6 -6 6l-15 4q-14 4 -20 11t-5 13q3 15 23 15h136q20 0 17 -15z" />
    <glyph glyph-name="brokenbar" unicode="&#xa6;" horiz-adv-x="134" 
d="M152 415h-59l54 308h59zM79 0h-59l54 308h59z" />
    <glyph glyph-name="section" unicode="&#xa7;" horiz-adv-x="404" 
d="M347 -14q-8 -47 -29.5 -82t-51 -59t-65 -36t-72.5 -12h-8q-15 0 -36 2t-40.5 6t-33 9t-12.5 11l17 95h25q-2 -19 5 -35t20 -27.5t31 -18.5t38 -8q58 3 97.5 34.5t47.5 79.5q11 59 -130 135q-55 29 -74.5 65.5t-10.5 87.5q11 64 53 105.5t102 50.5l-19 9q-54 26 -74 62.5
t-10 91.5q6 34 22 63t40 50t55.5 33t67.5 12h2q14 0 35 -2.5t41 -6t33.5 -8.5t12.5 -11l-16 -95h-25q1 21 -7.5 37.5t-22.5 28t-32 17.5t-35 6h-7q-39 0 -65 -21.5t-33 -57.5q-11 -65 117 -131q36 -18 57.5 -36.5t32 -38t12 -41t-2.5 -46.5q-11 -57 -42 -101t-86 -68
q52 -29 68.5 -63t7.5 -86zM332 269l1 13q-3 12 -11 25t-21 24.5t-31 19t-41 7.5q-38 0 -65 -22t-33 -57q-10 -61 100 -122q40 11 67.5 40t34.5 67z" />
    <glyph glyph-name="dieresis" unicode="&#xa8;" horiz-adv-x="251" 
d="M300 587q-6 -31 -41 -31t-29 31q4 31 40 31q34 0 30 -31zM194 587q-6 -31 -41 -31t-29 31q4 31 40 31q34 0 30 -31z" />
    <glyph glyph-name="copyright" unicode="&#xa9;" horiz-adv-x="801" 
d="M808 351q-13 -72 -52.5 -137.5t-97.5 -116t-130 -80t-149 -29.5q-74 0 -134.5 29t-101 79t-57.5 115.5t-4 139.5q12 71 51.5 136.5t97 116t129.5 80.5t150 30q70 0 131 -27t102.5 -75.5t60 -115t4.5 -145.5zM772 351q13 73 -4.5 133.5t-55.5 103.5t-92.5 67t-115.5 24
q-66 0 -127 -22t-124 -74q-49 -39 -86.5 -100.5t-49.5 -131.5q-12 -69 4 -129t53.5 -104.5t92 -69.5t118.5 -25q68 0 132.5 26t117 71t89 104.5t48.5 126.5zM530 132q-59 -28 -124 -28q-103 0 -146 59.5t-20 186.5q22 126 86 186t167 60q62 0 114 -29l-11 -64
q-5 -21 -14 -21q-4 0 -8 5t-6 16l-4 21q-8 18 -27 28.5t-52 8.5q-67 -4 -117.5 -57.5t-67.5 -153.5q-18 -103 15.5 -157t99.5 -54q32 0 53 9t35 27l11 21q10 22 21 22q10 0 7 -22z" />
    <glyph glyph-name="ordfeminine" unicode="&#xaa;" horiz-adv-x="349" 
d="M386 524q-6 -16 -26 -16q-39 0 -57 21q-50 -21 -91 -21q-51 0 -72.5 25.5t-14.5 64.5q5 28 21 48t40 33t54.5 18.5t65.5 5.5h11q6 0 9 9l3 22q12 66 -48 66q-42 0 -76 -10q-8 1 -12.5 4t-2.5 11q2 11 19 19q27 13 79 13q63 0 87.5 -28.5t14.5 -80.5l-30 -171q-1 -7 2 -10
t9 -5l5 -2q13 -4 10 -16zM317 664q2 8 -6 8q-65 -3 -92.5 -21t-33.5 -51q-4 -20 5.5 -36.5t46.5 -16.5q12 0 24.5 1.5t26.5 3.5q10 4 11 11z" />
    <glyph glyph-name="guillemotleft" unicode="&#xab;" horiz-adv-x="589" 
d="M629 540q0 -3 -5 -10l-224 -245l-4 -10q0 -9 1 -13l135 -244q3 -8 2 -12q-2 -6 -9 -6h-50q-17 0 -28 10l-165 254q-4 7 -4 11q1 5 6 10l262 252q9 9 25 9l50 1q9 0 8 -7zM420 540q0 -3 -5 -10l-223 -245q-5 -5 -6 -12q-1 -6 2 -11l135 -244q3 -8 2 -12q-2 -6 -9 -6h-50
q-14 0 -28 10l-165 254q-5 5 -5 11q1 4 7 10l261 252q9 9 26 9l50 1q9 0 8 -7z" />
    <glyph glyph-name="logicalnot" unicode="&#xac;" horiz-adv-x="485" 
d="M454 134h-48l33 192h-362l9 49h410z" />
    <glyph glyph-name="uni00AD" unicode="&#xad;" 
 />
    <glyph glyph-name="registered" unicode="&#xae;" horiz-adv-x="801" 
d="M808 351q-13 -72 -52.5 -137.5t-97.5 -116t-130 -80t-149 -29.5q-74 0 -134.5 29t-101 79t-57.5 115.5t-4 139.5q12 71 51.5 136.5t97 116t129.5 80.5t150 30q70 0 131 -27t102.5 -75.5t60 -115t4.5 -145.5zM772 351q13 73 -4.5 133.5t-55.5 103.5t-92.5 67t-115.5 24
q-66 0 -127 -22t-124 -74q-49 -39 -86.5 -100.5t-49.5 -131.5q-12 -69 4 -129t53.5 -104.5t92 -69.5t118.5 -25q68 0 132.5 26t117 71t89 104.5t48.5 126.5zM585 115q-2 -11 -18 -11h-44q-14 0 -19 14l-82 196q-5 12 -18 12h-21q-14 0 -17 -13l-28 -162q-3 -15 18 -18
q22 -7 19 -18q-2 -11 -16 -11h-116q-14 0 -12 11q1 7 8.5 10.5t16.5 6.5t16 7t9 12l70 398q1 6 -5 10t-13.5 7.5t-13.5 7.5t-5 10q2 11 16 11h151q75 0 111.5 -33t25.5 -99q-5 -27 -20 -50.5t-34.5 -40.5t-41 -27t-39.5 -10q-9 -4 -9 -8q-1 -3 1 -8l73 -172q3 -7 9.5 -10.5
t13 -6.5t11 -6t3.5 -9zM559 461q16 94 -94 97l-37 1h-3q-15 0 -18 -13l-30 -170q-1 -13 12 -13h42q111 0 128 98z" />
    <glyph glyph-name="macron" unicode="&#xaf;" horiz-adv-x="327" 
d="M375 583h-252l11 62h252z" />
    <glyph glyph-name="degree" unicode="&#xb0;" horiz-adv-x="320" 
d="M367 579q-4 -21 -16 -43t-31 -39.5t-44 -28.5t-53 -11t-49 10.5t-34 27.5t-17.5 39t-0.5 45q4 24 17 46t32 39t43.5 27t52.5 10q27 0 47.5 -11t33.5 -28t18 -39t1 -44zM315 579q3 18 -1.5 31.5t-13.5 22t-20.5 13t-21.5 4.5q-12 0 -26 -4.5t-26 -13.5t-21 -22.5
t-12 -30.5q-5 -32 14 -51.5t46 -19.5q12 0 25.5 5t25 14.5t20 22.5t11.5 29z" />
    <glyph glyph-name="plusminus" unicode="&#xb1;" horiz-adv-x="459" 
d="M453 311q-9 -6 -20 -6l-143 3l-23 -150q-1 -10 -9 -18q-8 -6 -19 -5.5t-16 6.5q-6 7 -4 19l23 148l-143 2q-13 1 -16 6q-5 7 -4 20q1 5 3.5 9.5t5.5 7.5q9 6 19 6l143 -2l21 137q1 12 9 18t19.5 5.5t16.5 -6.5q4 -8 3 -18l-21 -138l142 -2q5 0 10 -0.5t8 -4.5
q5 -6 3.5 -18t-8.5 -19zM415 75q-2 -12 -10.5 -18t-18.5 -6h-321q-26 0 -20 24q6 23 29 23h320q26 0 21 -23z" />
    <glyph glyph-name="twosuperior" unicode="&#xb2;" horiz-adv-x="308" 
d="M337 530q-3 -9 -8.5 -15t-14.5 -6h-187q-17 0 -14 16l3 20q5 14 23 28l123 92q38 28 45 71q5 29 -8.5 40.5t-47.5 11.5q-29 0 -69 -9q-1 -1 -7 -1q-12 0 -16 13q4 19 19 22q54 24 99 24q57 0 79.5 -27t14.5 -67q-6 -33 -32.5 -62t-68.5 -60l-82 -60h107q4 0 9.5 6.5
t8.5 8.5q7 8 14 13.5t14 5.5q17 0 14 -16z" />
    <glyph glyph-name="threesuperior" unicode="&#xb3;" horiz-adv-x="311" 
d="M353 549q-9 -51 -48 -85t-102 -34q-9 0 -26.5 3t-34 8.5t-28.5 14t-10 19.5q7 15 23 15q23 -8 42.5 -10.5t36.5 -2.5q75 0 88 79q5 29 -9 43.5t-41 14.5h-29q-17 0 -13 19l1 10q3 16 20 16h29q53 0 62 54q5 29 -8.5 51.5t-50.5 22.5q-27 0 -69 -15q-17 0 -18 16
q2 10 15 18t30 14t33.5 9t25.5 3q29 0 49.5 -10t33 -26.5t16 -38.5t-0.5 -47q-9 -52 -46 -74q40 -22 29 -87z" />
    <glyph glyph-name="acute" unicode="&#xb4;" horiz-adv-x="249" 
d="M308 648q-3 -17 -28 -31l-139 -77h-26l130 113q17 14 24.5 18t15.5 4q13 0 19 -7.5t4 -19.5z" />
    <glyph glyph-name="mu" unicode="&#xb5;" horiz-adv-x="631" 
d="M581 30q-1 -8 -11.5 -14.5t-24 -11t-27 -7t-21.5 -2.5l-34 1q-24 0 -19 24l8 48q-90 -69 -162 -69q-36 0 -63 12l-6 -32q-15 -88 -67.5 -127t-146.5 -39q-21 0 -16 20q3 19 23 19q54 0 85.5 29t43.5 98l78 441q2 11 -7 14t-19.5 4t-19.5 3.5t-7 12.5q1 7 11 13.5t23.5 11
t29.5 7t30 2.5h29q20 0 17 -19l-54 -303q-3 -20 -0.5 -40t11.5 -35.5t25 -25t39 -9.5q49 0 130 51l55 313q2 11 -7 14t-19.5 4t-19.5 3.5t-7 12.5q2 14 32.5 24t90.5 10q19 0 16 -19l-72 -406q-2 -11 6.5 -14.5t19.5 -5t19.5 -3.5t7.5 -10z" />
    <glyph glyph-name="paragraph" unicode="&#xb6;" horiz-adv-x="483" 
d="M546 667h-62l-118 -667h-40l118 667h-81l-118 -667h-41l63 360q-90 5 -128 51.5t-26 118.5q7 39 26.5 70.5t49 54t67 34.5t80.5 12h216z" />
    <glyph glyph-name="periodcentered" unicode="&#xb7;" horiz-adv-x="173" 
d="M178 342q-6 -39 -56 -39q-48 0 -42 39q7 39 56 39q23 0 34.5 -10.5t7.5 -28.5z" />
    <glyph glyph-name="cedilla" unicode="&#xb8;" horiz-adv-x="274" 
d="M197 -124q-7 -37 -38.5 -58.5t-82.5 -21.5q-61 0 -89 16l8 46q35 -25 70 -25q32 0 47.5 10.5t19.5 32.5q4 20 -15 29.5t-51 9.5h-9q-7 0 -8 -1l38 86h31l-27 -51q15 3 31 3q43 0 62.5 -20t12.5 -56z" />
    <glyph glyph-name="onesuperior" unicode="&#xb9;" horiz-adv-x="214" 
d="M251 522q-3 -13 -19 -13h-93q-7 0 -12 3t-3 10q2 8 9 12.5t15 8.5q5 3 10.5 6t6.5 8l40 226q1 4 -12 4h-11q-24 0 -21 13q2 8 9 12.5t16 6.5l67 17q19 0 16 -16l-47 -264q-1 -5 3.5 -7.5t9.5 -5.5q8 -5 13 -9.5t3 -11.5z" />
    <glyph glyph-name="ordmasculine" unicode="&#xba;" horiz-adv-x="362" 
d="M425 668q-13 -72 -58.5 -116.5t-114.5 -44.5q-32 0 -56 12t-39 33t-20 50.5t1 65.5q10 57 39.5 99t75.5 59q15 6 29.5 8.5t28.5 2.5q31 0 55.5 -11.5t39.5 -33.5t20.5 -53.5t-1.5 -70.5zM361 666q11 60 -2 94.5t-55 34.5q-15 0 -34 -8q-27 -11 -44 -42.5t-25 -76.5
q-9 -51 4 -84t55 -33q39 0 65.5 30.5t35.5 84.5z" />
    <glyph glyph-name="guillemotright" unicode="&#xbb;" horiz-adv-x="589" 
d="M582 275q0 -2 -2 -4.5t-4 -6.5l-255 -254q-14 -10 -32 -10h-50q-10 0 -8 6t7 12l221 244q4 3 6 12q2 5 -1 11l-138 245q-1 4 -1 10q1 7 10 7l50 -1q16 0 24 -9l171 -252q3 -5 2 -10zM373 275q0 -2 -2 -4.5t-4 -6.5l-255 -254q-17 -10 -32 -10h-50q-10 0 -8 6t7 12
l221 244q5 7 5 12q2 5 -1 11l-137 245q-2 5 -2 10q1 7 11 7l50 -1q17 0 23 -9l172 -252q3 -5 2 -10z" />
    <glyph glyph-name="onequarter" unicode="&#xbc;" horiz-adv-x="629" 
d="M667 663l-592 -664h-55l595 664h52zM239 350q-2 -7 -7.5 -10t-12.5 -3h-93q-7 0 -11.5 3t-2.5 10q2 9 9 13.5t15 8.5q5 3 10.5 6t6.5 8l41 230q0 4 -13 4h-11q-23 0 -20 13q2 8 9 13t16 7l67 17q18 0 15 -17l-47 -268q-1 -5 3.5 -7.5t9.5 -5.5q8 -5 13 -9.5t3 -12.5z
M582 47q-2 -15 -19 -15l-36 -1q-6 -1 -8 -6l-14 -79q-1 -16 -19 -16h-23q-16 0 -15 16l14 79q1 6 -5 6h-153q-15 0 -14 16l3 15q3 14 11 23l199 230l7 8q9 10 24 10h23q17 0 14 -16l-41 -232q-1 -7 6 -7h35q17 0 14 -16zM504 259l-153 -182l-1 -1q0 -1 1 0.5t3 1.5h112
q6 0 7 7z" />
    <glyph glyph-name="onehalf" unicode="&#xbd;" horiz-adv-x="660" 
d="M600 21q-4 -9 -9.5 -15t-14.5 -6h-187q-17 0 -14 17l4 20q3 14 22 28l124 93q37 28 45 72q5 29 -8.5 41t-47.5 12q-29 0 -69 -9q-1 -1 -7 -1q-12 0 -15 14q3 18 18 22q54 24 99 24q57 0 79.5 -27t14.5 -69q-6 -33 -32.5 -62t-69.5 -61l-82 -61h107q4 0 9.5 6.5t8.5 8.5
q7 8 14.5 14t14.5 6q16 0 14 -17zM667 663l-592 -664h-55l595 664h52zM239 351q-3 -13 -19 -13h-93q-7 0 -12 3t-3 10q2 8 9 13t15 8q5 3 10.5 6t6.5 8l41 230q0 4 -13 4h-11q-23 0 -20 14q2 8 9 12.5t16 6.5l67 17q18 0 15 -17l-47 -268q-1 -5 3.5 -7.5t9.5 -5.5
q17 -9 16 -21z" />
    <glyph glyph-name="threequarters" unicode="&#xbe;" horiz-adv-x="707" 
d="M749 663l-592 -664h-55l595 664h52zM660 47q-2 -15 -19 -15l-36 -1q-6 -1 -8 -6l-14 -79q-1 -16 -19 -16h-23q-16 0 -15 16l14 79q1 6 -5 6h-153q-17 0 -14 16l3 15q3 14 11 23l199 230l7 8q9 10 24 10h23q17 0 14 -16l-41 -232q-1 -7 6 -7h35q17 0 14 -16zM323 382
q-9 -52 -48 -86t-102 -34q-9 0 -26.5 3t-34 8.5t-28.5 14t-10 19.5q7 16 24 16q23 -8 42 -11t36 -3q74 0 89 80q5 29 -9 44t-41 15h-29q-17 0 -14 19l2 10q3 16 20 16h29q28 0 42.5 14.5t19.5 40.5q5 29 -8.5 52t-50.5 23q-27 0 -69 -15q-17 0 -18 16q2 10 15 18t30 14
t33.5 9t25.5 3q29 0 49.5 -10t33 -27t16 -39t-0.5 -47q-9 -53 -46 -75q40 -23 28 -88zM582 260l-153 -183l-1 -1q0 -1 1 0.5t3 1.5h112q6 0 7 7z" />
    <glyph glyph-name="questiondown" unicode="&#xbf;" horiz-adv-x="434" 
d="M351 687q-3 -18 -16 -28.5t-35 -10.5q-43 0 -37 39q7 39 51 39t37 -39zM413 194q-7 -40 -24 -74.5t-45 -60.5t-67 -41t-90 -15q-14 0 -41 4.5t-53.5 12.5t-45 20t-15.5 27q6 15 18 15q7 0 8 -1q32 -11 60.5 -15.5t52.5 -4.5q66 0 106 37t51 103q15 87 -43 139
q-60 54 -46 132l25 136h58l-23 -135q-9 -54 42 -93q42 -32 62.5 -79t9.5 -107z" />
    <glyph glyph-name="Agrave" unicode="&#xc0;" horiz-adv-x="640" 
d="M507 700h-26l-111 77q-20 14 -18 31q2 12 11 19.5t22 7.5q8 0 14.5 -4t17.5 -18zM608 15q-3 -15 -22 -15h-155q-21 0 -18 15q1 7 10 12t20 9.5t20 9t10 10.5v6l-15 115q-2 18 -21 18h-218q-23 0 -32 -18l-51 -114l-2 -6q0 -1 -1 -2q-1 -6 6.5 -10t16.5 -8t16.5 -9
t6.5 -13q-3 -15 -23 -15h-137q-19 0 -16 15q1 9 11 13.5t22 9t23.5 10.5t16.5 17l296 588q11 20 31 20h38q19 0 21 -18l90 -592q3 -20 31 -24q27 -10 25 -24zM445 262l-45 301q-1 10 -5 10q-3 0 -9 -10l-155 -301q-3 -8 -3 -9q-2 -9 12 -9h195q10 0 10 8v10z" />
    <glyph glyph-name="Aacute" unicode="&#xc1;" horiz-adv-x="640" 
d="M516 808q-2 -17 -28 -31l-139 -77h-26l130 113q17 14 24.5 18t15.5 4q13 0 19 -7.5t4 -19.5zM608 15q-3 -15 -22 -15h-155q-21 0 -18 15q1 7 10 12t20 9.5t20 9t10 10.5v6l-15 115q-2 18 -21 18h-218q-23 0 -32 -18l-51 -114l-2 -6q0 -1 -1 -2q-1 -6 6.5 -10t16.5 -8
t16.5 -9t6.5 -13q-3 -15 -23 -15h-137q-19 0 -16 15q1 9 11 13.5t22 9t23.5 10.5t16.5 17l296 588q11 20 31 20h38q19 0 21 -18l90 -592q3 -20 31 -24q27 -10 25 -24zM445 262l-45 301q-1 10 -5 10q-3 0 -9 -10l-155 -301q-3 -8 -3 -9q-2 -9 12 -9h195q10 0 10 8v10z" />
    <glyph glyph-name="Acircumflex" unicode="&#xc2;" horiz-adv-x="640" 
d="M524 711h-19l-67 74l-93 -74h-19l101 122h40zM608 15q-3 -15 -22 -15h-155q-21 0 -18 15q1 7 10 12t20 9.5t20 9t10 10.5v6l-15 115q-2 18 -21 18h-218q-23 0 -32 -18l-51 -114l-2 -6q0 -1 -1 -2q-1 -6 6.5 -10t16.5 -8t16.5 -9t6.5 -13q-3 -15 -23 -15h-137
q-19 0 -16 15q1 9 11 13.5t22 9t23.5 10.5t16.5 17l296 588q11 20 31 20h38q19 0 21 -18l90 -592q3 -20 31 -24q27 -10 25 -24zM445 262l-45 301q-1 10 -5 10q-3 0 -9 -10l-155 -301q-3 -8 -3 -9q-2 -9 12 -9h195q10 0 10 8v10z" />
    <glyph glyph-name="Atilde" unicode="&#xc3;" horiz-adv-x="640" 
d="M576 750q-23 -22 -41 -29.5t-35 -7.5q-7 0 -21 4.5t-29 10t-28.5 10t-20.5 4.5q-15 0 -33 -9t-43 -32l8 46q23 21 41 28.5t34 7.5q7 0 20.5 -4.5t28.5 -10t29 -10t21 -4.5q15 0 33 9t44 32zM608 15q-3 -15 -22 -15h-155q-21 0 -18 15q1 7 10 12t20 9.5t20 9t10 10.5v6
l-15 115q-2 18 -21 18h-218q-23 0 -32 -18l-51 -114l-2 -6q0 -1 -1 -2q-1 -6 6.5 -10t16.5 -8t16.5 -9t6.5 -13q-3 -15 -23 -15h-137q-19 0 -16 15q1 9 11 13.5t22 9t23.5 10.5t16.5 17l296 588q11 20 31 20h38q19 0 21 -18l90 -592q3 -20 31 -24q27 -10 25 -24zM445 262
l-45 301q-1 10 -5 10q-3 0 -9 -10l-155 -301q-3 -8 -3 -9q-2 -9 12 -9h195q10 0 10 8v10z" />
    <glyph glyph-name="Adieresis" unicode="&#xc4;" horiz-adv-x="640" 
d="M527 771q-6 -31 -41 -31t-29 31t40 31q36 0 30 -31zM421 771q-6 -31 -41 -31t-29 31t40 31q36 0 30 -31zM608 15q-3 -15 -22 -15h-155q-21 0 -18 15q1 7 10 12t20 9.5t20 9t10 10.5v6l-15 115q-2 18 -21 18h-218q-23 0 -32 -18l-51 -114l-2 -6q0 -1 -1 -2q-1 -6 6.5 -10
t16.5 -8t16.5 -9t6.5 -13q-3 -15 -23 -15h-137q-19 0 -16 15q1 9 11 13.5t22 9t23.5 10.5t16.5 17l296 588q11 20 31 20h38q19 0 21 -18l90 -592q3 -20 31 -24q27 -10 25 -24zM445 262l-45 301q-1 10 -5 10q-3 0 -9 -10l-155 -301q-3 -8 -3 -9q-2 -9 12 -9h195q10 0 10 8v10
z" />
    <glyph glyph-name="Aring" unicode="&#xc5;" horiz-adv-x="640" 
d="M507 769q-5 -29 -29.5 -49.5t-53.5 -20.5q-31 0 -46 21.5t-10 48.5q5 29 28.5 49t52.5 20q32 0 47.5 -21.5t10.5 -47.5zM608 15q-3 -15 -22 -15h-155q-21 0 -18 15q1 7 10 12t20 9.5t20 9t10 10.5v6l-15 115q-2 18 -21 18h-218q-23 0 -32 -18l-51 -114l-2 -6q0 -1 -1 -2
q-1 -6 6.5 -10t16.5 -8t16.5 -9t6.5 -13q-3 -15 -23 -15h-137q-19 0 -16 15q1 9 11 13.5t22 9t23.5 10.5t16.5 17l296 588q11 20 31 20h38q19 0 21 -18l90 -592q3 -20 31 -24q27 -10 25 -24zM476 769q2 14 -7 26.5t-26 12.5q-15 0 -28.5 -11t-16.5 -28t6 -28t26 -11
q16 0 29.5 11t16.5 28zM445 262l-45 301q-1 10 -5 10q-3 0 -9 -10l-155 -301q-3 -8 -3 -9q-2 -9 12 -9h195q10 0 10 8v10z" />
    <glyph glyph-name="AE" unicode="&#xc6;" horiz-adv-x="954" 
d="M903 20q-5 -20 -26 -20h-450q-16 0 -15 10q1 9 13 15t25.5 11t25 10.5t13.5 15.5l22 116q5 17 -15 17h-218q-25 0 -38 -18l-87 -114q-3 -4 -4.5 -6.5t-2.5 -4.5q-1 -5 5 -8t13 -6t12 -7.5t4 -11.5v-4q-8 -15 -28 -15h-137q-15 0 -13 9q2 11 12.5 16.5t24.5 10t29 11
t25 18.5l483 578q18 21 37 21h382q20 0 17 -20l-12 -68q-4 -19 -18 -19q-9 0 -13 9t-6.5 20t-6 20t-12.5 9h-261q-18 0 -21 -18l-38 -216q-3 -20 18 -20h112q9 0 16 9t13.5 20.5t13.5 20.5t16 9q14 0 11 -20l-22 -124q-4 -22 -18 -22q-9 0 -13 9t-6.5 20.5t-6.5 20.5t-13 9
h-113q-20 0 -24 -22l-39 -228l-1 -6q3 -8 14 -8h261q10 0 17.5 9t14 20t13 20t15.5 9q14 0 11 -19zM577 563q2 11 -2 11t-13 -11l-251 -301q-3 -4 -4.5 -6.5t-2.5 -4.5q-1 -7 10 -7h196q13 0 16 18z" />
    <glyph glyph-name="Ccedilla" unicode="&#xc7;" horiz-adv-x="524" 
d="M475 34q-87 -39 -170 -39h-14l-24 -46q15 3 31 3q43 0 62.5 -20t12.5 -56q-7 -37 -38.5 -58.5t-82.5 -21.5q-61 0 -89 16l8 46q35 -25 70 -25q32 0 47.5 10.5t19.5 32.5q4 21 -16.5 30t-50.5 9h-8q-7 0 -8 -1l36 83q-53 5 -92 25.5t-63 56.5q-57 85 -27 253
q30 172 115.5 254.5t229.5 82.5q88 0 156 -40l-15 -87q-6 -29 -20 -29t-19 29l-5 29q-19 49 -97 49q-46 0 -88.5 -18.5t-77.5 -54.5t-61 -90t-38 -125q-13 -71 -6 -125t29.5 -90t58.5 -54.5t82 -18.5q77 0 113 49l16 29q14 29 30 29q14 0 9 -29z" />
    <glyph glyph-name="Egrave" unicode="&#xc8;" 
d="M507 700h-26l-111 77q-20 14 -18 31q2 12 11 19.5t22 7.5q8 0 14.5 -4t17.5 -18zM502 21q-5 -21 -25 -21h-436q-21 0 -18 15q1 9 11 14t21.5 9t21.5 9.5t12 15.5l96 537q2 11 -6.5 16t-19 8.5t-19 8.5t-6.5 16q3 15 22 15h439q20 0 17 -20l-12 -68q-4 -19 -19 -19
q-9 0 -12.5 9t-6 20t-6 20t-12.5 9h-261q-19 0 -22 -18l-38 -216q-3 -20 18 -20h113q9 0 16 9t13.5 20.5t13 20.5t15.5 9q15 0 12 -20l-22 -124q-4 -22 -19 -22q-9 0 -12.5 9t-6 20.5t-6.5 20.5t-13 9h-113q-21 0 -25 -22l-39 -225q-3 -17 14 -17h260q11 0 18.5 9t14 20
t13 20t15.5 9q14 0 11 -19z" />
    <glyph glyph-name="Eacute" unicode="&#xc9;" 
d="M486 808q-2 -17 -28 -31l-139 -77h-26l130 113q17 14 24.5 18t15.5 4q13 0 19 -7.5t4 -19.5zM502 21q-5 -21 -25 -21h-436q-21 0 -18 15q1 9 11 14t21.5 9t21.5 9.5t12 15.5l96 537q2 11 -6.5 16t-19 8.5t-19 8.5t-6.5 16q3 15 22 15h439q20 0 17 -20l-12 -68
q-4 -19 -19 -19q-9 0 -12.5 9t-6 20t-6 20t-12.5 9h-261q-19 0 -22 -18l-38 -216q-3 -20 18 -20h113q9 0 16 9t13.5 20.5t13 20.5t15.5 9q15 0 12 -20l-22 -124q-4 -22 -19 -22q-9 0 -12.5 9t-6 20.5t-6.5 20.5t-13 9h-113q-21 0 -25 -22l-39 -225q-3 -17 14 -17h260
q11 0 18.5 9t14 20t13 20t15.5 9q14 0 11 -19z" />
    <glyph glyph-name="Ecircumflex" unicode="&#xca;" 
d="M494 711h-19l-67 74l-93 -74h-19l101 122h40zM502 21q-5 -21 -25 -21h-436q-21 0 -18 15q1 9 11 14t21.5 9t21.5 9.5t12 15.5l96 537q2 11 -6.5 16t-19 8.5t-19 8.5t-6.5 16q3 15 22 15h439q20 0 17 -20l-12 -68q-4 -19 -19 -19q-9 0 -12.5 9t-6 20t-6 20t-12.5 9h-261
q-19 0 -22 -18l-38 -216q-3 -20 18 -20h113q9 0 16 9t13.5 20.5t13 20.5t15.5 9q15 0 12 -20l-22 -124q-4 -22 -19 -22q-9 0 -12.5 9t-6 20.5t-6.5 20.5t-13 9h-113q-21 0 -25 -22l-39 -225q-3 -17 14 -17h260q11 0 18.5 9t14 20t13 20t15.5 9q14 0 11 -19z" />
    <glyph glyph-name="Edieresis" unicode="&#xcb;" 
d="M497 771q-6 -31 -41 -31t-29 31t40 31q36 0 30 -31zM391 771q-6 -31 -41 -31t-29 31t40 31q36 0 30 -31zM502 21q-5 -21 -25 -21h-436q-21 0 -18 15q1 9 11 14t21.5 9t21.5 9.5t12 15.5l96 537q2 11 -6.5 16t-19 8.5t-19 8.5t-6.5 16q3 15 22 15h439q20 0 17 -20l-12 -68
q-4 -19 -19 -19q-9 0 -12.5 9t-6 20t-6 20t-12.5 9h-261q-19 0 -22 -18l-38 -216q-3 -20 18 -20h113q9 0 16 9t13.5 20.5t13 20.5t15.5 9q15 0 12 -20l-22 -124q-4 -22 -19 -22q-9 0 -12.5 9t-6 20.5t-6.5 20.5t-13 9h-113q-21 0 -25 -22l-39 -225q-3 -17 14 -17h260
q11 0 18.5 9t14 20t13 20t15.5 9q14 0 11 -19z" />
    <glyph glyph-name="Igrave" unicode="&#xcc;" horiz-adv-x="271" 
d="M318 700h-26l-112 77q-20 14 -18 31q4 25 33 27q9 0 15 -4t17 -18zM219 15q-3 -15 -24 -15h-155q-20 0 -17 15q2 11 12 15.5t21.5 8t21.5 8t12 15.5l96 542q1 8 -7.5 13t-19 9t-19 9t-6.5 14q3 15 24 15h154q20 0 17 -15q-1 -15 -33 -24q-30 -5 -33 -24l-95 -538
q-2 -11 6.5 -16t19 -8t19 -8t6.5 -16z" />
    <glyph glyph-name="Iacute" unicode="&#xcd;" horiz-adv-x="279" 
d="M366 808q-2 -17 -28 -31l-139 -77h-26l130 113q17 14 24.5 18t15.5 4q13 0 19 -7.5t4 -19.5zM219 15q-5 -15 -24 -15h-155q-20 0 -17 15q2 11 12 16t21.5 8t21.5 7.5t12 15.5l96 542q1 8 -7.5 13t-19 9t-19 9t-6.5 14q3 15 24 15h154q20 0 17 -15q-1 -15 -33 -24
q-31 -5 -34 -24l-95 -538q-2 -11 6.5 -16t19.5 -8.5t19.5 -8t6.5 -15.5z" />
    <glyph glyph-name="Icircumflex" unicode="&#xce;" horiz-adv-x="275" 
d="M344 711h-20l-67 74l-92 -74h-20l101 122h41zM223 15q-3 -15 -24 -15h-155q-20 0 -17 15q2 11 12 15.5t21.5 8t21.5 8t12 15.5l96 542q1 8 -7.5 13t-19 9t-19 9t-6.5 14q3 15 24 15h155q20 0 17 -15q-1 -15 -34 -24q-30 -5 -33 -24l-95 -538q-2 -11 6.5 -16t19 -8t19 -8
t6.5 -16z" />
    <glyph glyph-name="Idieresis" unicode="&#xcf;" horiz-adv-x="271" 
d="M345 771q-6 -31 -41 -31t-29 31t40 31q36 0 30 -31zM239 771q-6 -31 -41 -31t-29 31t40 31q36 0 30 -31zM219 15q-5 -15 -24 -15h-155q-20 0 -17 15q2 11 12 16t21.5 8t21.5 7.5t12 15.5l96 542q1 8 -7.5 13t-19 9t-19 9t-6.5 14q3 15 24 15h154q20 0 17 -15
q-1 -15 -33 -24q-31 -5 -34 -24l-95 -538q-2 -11 6.5 -16t19.5 -8.5t19.5 -8t6.5 -15.5z" />
    <glyph glyph-name="Eth" unicode="&#xd0;" horiz-adv-x="592" 
d="M369 335q-2 -12 -10.5 -18t-18.5 -6h-261q-26 0 -20 24q6 23 29 23h260q26 0 21 -23zM596 332q-59 -332 -332 -332h-225q-19 0 -16 15q1 9 11 14t21.5 9t21.5 9.5t12 15.5l95 537q2 10 -6 16t-18.5 10t-19 9t-6.5 14q3 15 23 15h223q275 0 216 -332zM513 332
q25 142 -13 212.5t-129 70.5h-87q-20 0 -23 -18l-93 -528q-3 -20 19 -20h86q91 0 152.5 70.5t87.5 212.5z" />
    <glyph glyph-name="Ntilde" unicode="&#xd1;" horiz-adv-x="621" 
d="M549 764q-22 -22 -40.5 -29.5t-35.5 -7.5q-7 0 -21.5 4.5t-29.5 10t-28.5 10t-19.5 4.5q-14 0 -32 -7.5t-44 -33.5l8 46q23 21 41.5 28.5t34.5 7.5q7 0 20.5 -4.5t28.5 -10t28.5 -10t20.5 -4.5q15 0 33 9t44 32zM680 649q-2 -9 -11.5 -14t-21 -9t-21.5 -9.5t-12 -14.5
l-102 -582q-5 -20 -25 -20h-46q-21 0 -28 19l-174 487q-5 12 -8 12t-4 -10l-79 -445q-2 -10 6.5 -15.5t19 -9.5t18.5 -9t7 -14q-3 -15 -22 -15h-137q-20 0 -17 15q1 9 11 14t22 9t22 9.5t12 15.5l94 532q2 11 -6 17.5t-18.5 11.5t-19 10.5t-6.5 14.5q3 15 23 15h98
q20 0 27 -19l181 -495q3 -11 8 -11q2 0 4 11l80 451q3 20 -25 24q-28 9 -26 24q3 15 24 15h134q21 0 18 -15z" />
    <glyph glyph-name="Ograve" unicode="&#xd2;" horiz-adv-x="612" 
d="M507 700h-26l-111 77q-20 14 -18 31q2 12 11 19.5t22 7.5q8 0 14.5 -4t17.5 -18zM616 332q-30 -168 -111 -252t-211 -84h-13q-262 0 -202 336q59 336 321 336h13q130 0 181 -84t22 -252zM538 332q23 136 -16 208t-124 79q-44 -3 -82.5 -23t-70 -56t-54 -88.5
t-34.5 -119.5q-24 -136 15.5 -208t124.5 -79q43 3 81.5 23t70 56t54.5 88t35 120z" />
    <glyph glyph-name="Oacute" unicode="&#xd3;" horiz-adv-x="612" 
d="M516 808q-2 -17 -28 -31l-139 -77h-26l130 113q17 14 24.5 18t15.5 4q13 0 19 -7.5t4 -19.5zM616 332q-30 -168 -111 -252t-211 -84h-13q-262 0 -202 336q59 336 321 336h13q130 0 181 -84t22 -252zM538 332q23 136 -16 208t-124 79q-44 -3 -82.5 -23t-70 -56t-54 -88.5
t-34.5 -119.5q-24 -136 15.5 -208t124.5 -79q43 3 81.5 23t70 56t54.5 88t35 120z" />
    <glyph glyph-name="Ocircumflex" unicode="&#xd4;" horiz-adv-x="612" 
d="M513 711h-19l-67 74l-93 -74h-19l101 122h40zM616 332q-30 -168 -111 -252t-211 -84h-13q-262 0 -202 336q59 336 321 336h13q130 0 181 -84t22 -252zM538 332q23 136 -16 208t-124 79q-44 -3 -82.5 -23t-70 -56t-54 -88.5t-34.5 -119.5q-24 -136 15.5 -208t124.5 -79
q43 3 81.5 23t70 56t54.5 88t35 120z" />
    <glyph glyph-name="Otilde" unicode="&#xd5;" horiz-adv-x="612" 
d="M562 750q-23 -22 -41 -29.5t-35 -7.5q-7 0 -21 4.5t-29 10t-28.5 10t-20.5 4.5q-15 0 -33 -9t-43 -32l8 46q23 21 41 28.5t34 7.5q7 0 20.5 -4.5t28.5 -10t29 -10t21 -4.5q15 0 33 9t44 32zM616 332q-30 -168 -111 -252t-211 -84h-13q-262 0 -202 336q59 336 321 336h13
q130 0 181 -84t22 -252zM538 332q23 136 -16 208t-124 79q-44 -3 -82.5 -23t-70 -56t-54 -88.5t-34.5 -119.5q-24 -136 15.5 -208t124.5 -79q43 3 81.5 23t70 56t54.5 88t35 120z" />
    <glyph glyph-name="Odieresis" unicode="&#xd6;" horiz-adv-x="612" 
d="M513 771q-6 -31 -42 -31q-35 0 -29 31t40 31q37 0 31 -31zM406 771q-6 -31 -41 -31t-29 31t40 31q36 0 30 -31zM616 332q-30 -168 -111 -252t-211 -84h-13q-262 0 -202 336q59 336 321 336h13q130 0 181 -84t22 -252zM538 332q23 136 -16 208t-124 79q-44 -3 -82.5 -23
t-70 -56t-54 -88.5t-34.5 -119.5q-24 -136 15.5 -208t124.5 -79q43 3 81.5 23t70 56t54.5 88t35 120z" />
    <glyph glyph-name="multiply" unicode="&#xd7;" horiz-adv-x="372" 
d="M382 369q-2 -9 -11 -17l-121 -100l84 -95q6 -8 5 -17q-2 -8 -12 -16t-19 -8q-6 0 -16 8l-82 95l-120 -100q-11 -9 -20 -9q-8 0 -15.5 8.5t-5.5 16.5q1 9 12 18l120 99l-89 104q-8 9 -6 17t12 16t18 8q7 0 18 -8l87 -103l121 100q13 8 18 8q9 0 18 -9q6 -7 4 -16z" />
    <glyph glyph-name="Oslash" unicode="&#xd8;" horiz-adv-x="612" 
d="M616 332q-30 -168 -111 -252t-211 -84h-13q-262 0 -202 336q59 336 321 336h13q130 0 181 -84t22 -252zM538 332q22 133 -17 207q-15 28 -35 45l-253 -522q33 -14 64 -17q43 3 81.5 23t70 56t54.5 88t35 120zM459 602q-33 14 -61 17q-44 -3 -82.5 -23t-70 -56t-54 -88.5
t-34.5 -119.5q-12 -68 -8.5 -119.5t23.5 -88.5q13 -26 36 -45z" />
    <glyph glyph-name="Ugrave" unicode="&#xd9;" horiz-adv-x="621" 
d="M507 700h-26l-111 77q-20 14 -18 31q2 12 11 19.5t22 7.5q8 0 14.5 -4t17.5 -18zM680 648q-1 -8 -11 -13t-21.5 -9.5t-22 -10t-11.5 -14.5l-67 -377q-10 -56 -33.5 -98t-58 -70t-78.5 -42t-94 -14q-97 0 -140 58t-23 176l65 367q2 10 -6.5 15.5t-19 9.5t-19 9t-6.5 14
q3 15 23 15h156q19 0 16 -15q-2 -9 -11.5 -14t-21.5 -9t-22 -9.5t-12 -15.5l-68 -386q-28 -157 116 -157q81 0 122.5 40.5t55.5 115.5l68 387q1 9 -6.5 14.5t-18 10t-19 9.5t-8.5 13q3 16 23 16l137 -1q19 0 16 -15z" />
    <glyph glyph-name="Uacute" unicode="&#xda;" horiz-adv-x="621" 
d="M536 808q-2 -17 -28 -31l-139 -77h-26l130 113q17 14 24.5 18t15.5 4q13 0 19 -7.5t4 -19.5zM680 648q-1 -8 -11 -13t-21.5 -9.5t-22 -10t-11.5 -14.5l-67 -377q-10 -56 -33.5 -98t-58 -70t-78.5 -42t-94 -14q-97 0 -140 58t-23 176l65 367q2 10 -6.5 15.5t-19 9.5t-19 9
t-6.5 14q3 15 23 15h156q19 0 16 -15q-2 -9 -11.5 -14t-21.5 -9t-22 -9.5t-12 -15.5l-68 -386q-28 -160 124 -157q77 2 117 42.5t53 113.5l68 387q1 9 -6.5 14.5t-18 10t-19 9.5t-8.5 13q3 16 23 16l137 -1q19 0 16 -15z" />
    <glyph glyph-name="Ucircumflex" unicode="&#xdb;" horiz-adv-x="621" 
d="M524 711h-19l-67 74l-93 -74h-19l101 122h40zM680 648q-1 -8 -11 -13t-21.5 -9.5t-22 -10t-11.5 -14.5l-67 -377q-10 -56 -33.5 -98t-58 -70t-78.5 -42t-94 -14q-97 0 -140 58t-23 176l65 367q2 10 -6.5 15.5t-19 9.5t-19 9t-6.5 14q3 15 23 15h156q19 0 16 -15
q-2 -9 -11.5 -14t-21.5 -9t-22 -9.5t-12 -15.5l-68 -386q-28 -160 124 -157q77 2 117 42.5t53 113.5l68 387q1 9 -6.5 14.5t-18 10t-19 9.5t-8.5 13q3 16 23 16l137 -1q19 0 16 -15z" />
    <glyph glyph-name="Udieresis" unicode="&#xdc;" horiz-adv-x="621" 
d="M517 771q-6 -31 -41 -31t-29 31t40 31q36 0 30 -31zM411 771q-6 -31 -41 -31t-29 31t40 31q36 0 30 -31zM680 648q-1 -8 -11 -13t-21.5 -9.5t-22 -10t-11.5 -14.5l-67 -377q-10 -56 -33.5 -98t-58 -70t-78.5 -42t-94 -14q-97 0 -140 58t-23 176l65 367q2 10 -6.5 15.5
t-19 9.5t-19 9t-6.5 14q3 15 23 15h156q19 0 16 -15q-2 -9 -11.5 -14t-21.5 -9t-22 -9.5t-12 -15.5l-68 -386q-28 -160 124 -157q77 2 117 42.5t53 113.5l68 387q1 9 -6.5 14.5t-18 10t-19 9.5t-8.5 13q3 16 23 16l137 -1q19 0 16 -15z" />
    <glyph glyph-name="Yacute" unicode="&#xdd;" horiz-adv-x="612" 
d="M536 808q-2 -17 -28 -31l-139 -77h-26l130 113q17 14 24.5 18t15.5 4q13 0 19 -7.5t4 -19.5zM671 649q-2 -9 -11.5 -14t-22 -9t-25 -9t-19.5 -15l-193 -273q-16 -22 -16 -33l-41 -232q-2 -10 6.5 -15.5t19 -10t18.5 -9.5t7 -14q-3 -15 -23 -15h-156q-19 0 -16 15
q1 9 11 14t22 9.5t21.5 10t11.5 14.5l41 234q3 14 -4 33l-107 272q-3 9 -13.5 14t-21.5 9.5t-19.5 9.5t-6.5 14q3 15 23 15h165q20 0 17 -15q-1 -7 -9.5 -10.5t-23.5 -8.5l-15 -5q-6 -1 -8 -9q-2 -5 1 -11l81 -217q3 -8 8 -8q4 0 9 8l155 217q4 8 4 10q1 6 -6 6l-15 4
q-14 4 -20 11t-5 13q3 15 23 15h136q20 0 17 -15z" />
    <glyph glyph-name="Thorn" unicode="&#xde;" horiz-adv-x="522" 
d="M513 262q-9 -51 -32 -98.5t-58 -84t-82.5 -58.5t-105.5 -22q-19 0 -36 3t-40 9l-37 -210q-3 -19 -33 -19h-29q-9 0 -21.5 2.5t-24.5 7t-20 10.5t-6 14q1 9 10.5 11t21 3.5t21.5 5t12 14.5l141 795q2 11 -7 14t-19.5 4.5t-19.5 4t-7 11.5q1 7 11 13.5t23.5 11t27 7
t22.5 2.5h29q30 0 26 -19l-38 -215q-1 -13 6 -13q4 0 12 4q45 22 95 22q44 0 77.5 -18t54 -49.5t28 -73t-1.5 -89.5zM437 261q14 81 -12.5 129t-90.5 48q-9 0 -26 -1.5t-34.5 -6t-31 -12.5t-15.5 -20l-56 -316q-2 -12 6.5 -18.5t21 -9.5t25.5 -3.5t21 -0.5q31 0 62 13.5
t56.5 40t45 66t28.5 91.5z" />
    <glyph glyph-name="germandbls" unicode="&#xdf;" horiz-adv-x="631" 
d="M599 131q-12 -69 -62 -103t-135 -34q-35 0 -72 8t-76 27l-1 102q3 16 27 16q14 0 16 -15l8 -44q5 -22 26 -37t60 -15q60 0 93 28t41 70q9 50 -110 97t-101 141q7 39 32 65.5t67 46.5q13 6 31.5 20t24.5 46l2 10q1 35 -25 50t-68 15h-3q0 -2 -1 -2q-2 0 -4 2
q-51 -2 -81.5 -30t-42.5 -97l-77 -435q-2 -10 6 -15.5t18.5 -9.5t18.5 -9t7 -14q-3 -15 -22 -15h-156q-20 0 -17 15q1 9 11 14t22 9t22 9.5t12 15.5l63 358q3 18 -17 18h-19q-19 0 -15 25q4 24 24 24h29q11 0 12 10q15 88 67.5 127t146.5 39h18q16 0 41 -4t46.5 -16
t35 -34.5t7.5 -59.5q-3 -20 -12.5 -36t-22 -29t-26 -22.5t-25.5 -16.5q-5 -3 -13 -7.5t-16 -13t-14.5 -20t-9.5 -27.5q-10 -58 108 -104q63 -24 86 -59.5t15 -83.5z" />
    <glyph glyph-name="agrave" unicode="&#xe0;" horiz-adv-x="474" 
d="M379 540h-26l-111 77q-21 15 -18 31q2 12 11 19.5t22 7.5q8 0 14.5 -4t17.5 -18zM422 17q-5 -17 -33 -17q-58 0 -82 34q-72 -34 -140 -34q-69 0 -101 34.5t-24 91.5q6 42 27.5 73t56 50.5t80.5 29t102 9.5h16q19 0 22 20l6 35q10 54 -9 82.5t-67 28.5q-31 0 -59.5 -3.5
t-57.5 -11.5q-20 2 -17 15q3 14 24 23q41 19 115 19q91 0 126.5 -42t21.5 -120l-47 -267q-2 -13 4.5 -19t15 -10t15 -8t5.5 -13zM333 235q4 19 -15 19q-100 -4 -145.5 -33.5t-55.5 -84.5q-3 -17 -1 -33.5t12 -29.5t28 -21t47 -8q42 0 79 10q19 4 24 24z" />
    <glyph glyph-name="aacute" unicode="&#xe1;" horiz-adv-x="474" 
d="M388 648q-3 -17 -28 -31l-139 -77h-26l130 113q17 14 24.5 18t15.5 4q13 0 19 -7.5t4 -19.5zM422 17q-5 -17 -33 -17q-58 0 -82 34q-72 -34 -140 -34q-72 0 -103.5 36.5t-20.5 96.5q7 41 30 70.5t57.5 48t79.5 27.5t98 9h16q19 0 22 20l6 35q10 54 -10 82.5t-68 28.5
q-30 0 -58.5 -3.5t-56.5 -11.5q-20 2 -17 15q3 14 24 23q41 19 115 19q91 0 126.5 -42t21.5 -120l-47 -267q-2 -13 4.5 -19t15 -10t15 -8t5.5 -13zM333 235q4 19 -15 19q-100 -4 -145.5 -33.5t-55.5 -84.5q-3 -17 -1 -33.5t12 -29.5t28 -21t47 -8q42 0 79 10q19 4 24 24z
" />
    <glyph glyph-name="acircumflex" unicode="&#xe2;" horiz-adv-x="474" 
d="M384 541h-19l-67 74l-93 -74h-19l101 122h40zM422 17q-5 -17 -33 -17q-58 0 -82 34q-72 -34 -140 -34q-72 0 -103.5 36.5t-20.5 96.5q7 41 30 70.5t57.5 48t79.5 27.5t98 9h16q19 0 22 20l6 35q10 54 -10 82.5t-68 28.5q-30 0 -58.5 -3.5t-56.5 -11.5q-20 2 -17 15
q3 14 24 23q41 19 115 19q91 0 126.5 -42t21.5 -120l-47 -267q-2 -13 4.5 -19t15 -10t15 -8t5.5 -13zM333 235q4 19 -15 19q-100 -4 -145.5 -33.5t-55.5 -84.5q-3 -17 -1 -33.5t12 -29.5t28 -21t47 -8q42 0 79 10q19 4 24 24z" />
    <glyph glyph-name="atilde" unicode="&#xe3;" horiz-adv-x="474" 
d="M429 594q-22 -22 -40.5 -29.5t-35.5 -7.5q-7 0 -21.5 4.5t-29.5 10t-28.5 10t-19.5 4.5q-14 0 -32 -7.5t-44 -33.5l8 46q23 21 41.5 28.5t34.5 7.5q7 0 20.5 -4.5t28.5 -10t28.5 -10t20.5 -4.5q15 0 33 9t44 32zM422 17q-5 -17 -33 -17q-58 0 -82 34q-72 -34 -140 -34
q-72 0 -103.5 36.5t-20.5 96.5q7 41 30 70.5t57.5 48t79.5 27.5t98 9h16q19 0 22 20l6 35q10 54 -10 82.5t-68 28.5q-30 0 -58.5 -3.5t-56.5 -11.5q-20 2 -17 15q3 14 24 23q41 19 115 19q91 0 126.5 -42t21.5 -120l-47 -267q-2 -13 4.5 -19t15 -10t15 -8t5.5 -13zM333 235
q4 19 -15 19q-100 -4 -145.5 -33.5t-55.5 -84.5q-3 -17 -1 -33.5t12 -29.5t28 -21t47 -8q42 0 79 10q19 4 24 24z" />
    <glyph glyph-name="adieresis" unicode="&#xe4;" horiz-adv-x="474" 
d="M384 587q-6 -31 -41 -31t-29 31q4 31 40 31q34 0 30 -31zM278 587q-6 -31 -41 -31t-29 31q4 31 40 31q34 0 30 -31zM422 17q-5 -17 -33 -17q-58 0 -82 34q-72 -34 -140 -34q-72 0 -103.5 36.5t-20.5 96.5q7 41 30 70.5t57.5 48t79.5 27.5t98 9h16q19 0 22 20l6 35
q10 54 -10 82.5t-68 28.5q-30 0 -58.5 -3.5t-56.5 -11.5q-20 2 -17 15q3 14 24 23q41 19 115 19q91 0 126.5 -42t21.5 -120l-47 -267q-2 -13 4.5 -19t15 -10t15 -8t5.5 -13zM333 235q4 19 -15 19q-100 -4 -145.5 -33.5t-55.5 -84.5q-3 -17 -1 -33.5t12 -29.5t28 -21t47 -8
q42 0 79 10q19 4 24 24z" />
    <glyph glyph-name="aring" unicode="&#xe5;" horiz-adv-x="474" 
d="M371 606q-5 -29 -29 -49.5t-53 -20.5t-45.5 20t-11.5 50q5 26 27.5 47.5t53.5 21.5q27 0 45 -20t13 -49zM422 17q-5 -17 -33 -17q-58 0 -82 34q-72 -34 -140 -34q-72 0 -103.5 36.5t-20.5 96.5q7 41 30 70.5t57.5 48t79.5 27.5t98 9h16q19 0 22 20l6 35q10 54 -10 82.5
t-68 28.5q-30 0 -58.5 -3.5t-56.5 -11.5q-20 2 -17 15q3 14 24 23q41 19 115 19q91 0 126.5 -42t21.5 -120l-47 -267q-2 -13 4.5 -19t15 -10t15 -8t5.5 -13zM340 606q2 14 -7 26t-25 12q-15 0 -29 -11t-17 -27q-3 -17 6 -28.5t26 -11.5q16 0 29.5 11.5t16.5 28.5zM333 235
q4 19 -15 19q-100 -4 -145.5 -33.5t-55.5 -84.5q-3 -17 -1 -33.5t12 -29.5t28 -21t47 -8q42 0 79 10q19 4 24 24z" />
    <glyph glyph-name="ae" unicode="&#xe6;" horiz-adv-x="731" 
d="M720 252q-2 -15 -18 -15h-285q-8 -42 -4.5 -77.5t17.5 -61t38 -40t57 -14.5q45 0 110 25q19 0 18 -13q-2 -12 -20.5 -22.5t-42.5 -18t-47.5 -12t-35.5 -4.5q-38 0 -72.5 15t-59.5 41q-54 -28 -106 -42t-94 -14q-75 0 -109 36.5t-23 97.5q7 41 30 70.5t57.5 48t79.5 27.5
t98 9h16q19 0 22 20l6 35q10 54 -10 82.5t-68 28.5q-30 0 -58.5 -3.5t-56.5 -11.5q-20 2 -17 15q2 10 14.5 18t32 13t43.5 8t49 3q57 0 92.5 -18.5t49.5 -51.5q39 35 82.5 53.5t82.5 18.5q88 0 120.5 -64t11.5 -182zM659 296q10 85 -9.5 121.5t-79.5 36.5q-53 0 -85.5 -42.5
t-53.5 -115.5q-3 -20 16 -20h190q20 0 22 20zM331 219q0 6 1 12.5t0.5 11.5t-3.5 8t-11 3q-100 -2 -145.5 -32.5t-55.5 -85.5q-3 -17 -1 -33.5t11 -29.5t26.5 -21t46.5 -8q20 0 41 3.5t43 9.5q19 6 22 21z" />
    <glyph glyph-name="ccedilla" unicode="&#xe7;" horiz-adv-x="437" 
d="M390 46q-2 -11 -17.5 -20t-37 -15.5t-44.5 -10t-39 -3.5h-10l-25 -48q15 3 31 3q43 0 62.5 -20t12.5 -56q-7 -37 -38.5 -58.5t-82.5 -21.5q-61 0 -89 16l8 46q35 -25 70 -25q32 0 47.5 10.5t19.5 32.5q4 21 -16.5 30t-50.5 9h-8q-7 0 -8 -1l38 86q-14 2 -27.5 5t-27.5 9
q-61 26 -85.5 84t-10.5 139q9 51 32.5 97.5t58.5 82t80 56t98 20.5q43 0 114 -20l-13 -78q-5 -21 -23 -21q-10 0 -15 9t-9 21t-9 23.5t-14 16.5q-11 6 -22.5 8t-22.5 2q-28 0 -56 -16t-52 -45t-42 -68.5t-26 -87.5q-8 -44 -2 -80t24 -62t46.5 -40t66.5 -14q40 0 96 18
q21 0 18 -13z" />
    <glyph glyph-name="egrave" unicode="&#xe8;" horiz-adv-x="460" 
d="M379 540h-26l-111 77q-21 15 -18 31q2 12 11 19.5t22 7.5q8 0 14.5 -4t17.5 -18zM449 252q-2 -15 -18 -15h-285q-8 -42 -4 -77.5t17.5 -61t37.5 -40t57 -14.5q45 0 110 25q19 0 18 -13q-2 -12 -20.5 -22.5t-42.5 -18t-47.5 -12t-35.5 -4.5q-48 0 -85 18.5t-59.5 52
t-30 79.5t2.5 100q9 53 32.5 98.5t57 79t75.5 52.5t88 19q88 0 120.5 -64t11.5 -182zM388 296q9 82 -9 119t-75 39q-56 1 -89 -40t-55 -118q-3 -20 16 -20h190q20 0 22 20z" />
    <glyph glyph-name="eacute" unicode="&#xe9;" horiz-adv-x="460" 
d="M408 648q-3 -17 -28 -31l-139 -77h-26l130 113q17 14 24.5 18t15.5 4q13 0 19 -7.5t4 -19.5zM449 252q-2 -15 -18 -15h-285q-8 -42 -4.5 -77.5t17.5 -61t38 -40t57 -14.5q45 0 110 25q19 0 18 -13q-2 -12 -20.5 -22.5t-42.5 -18t-47.5 -12t-35.5 -4.5q-48 0 -85 18.5
t-59.5 52t-30 79.5t2.5 100q9 53 32.5 98.5t57 79t75.5 52.5t88 19q88 0 120.5 -64t11.5 -182zM388 296q10 85 -9.5 121.5t-79.5 36.5q-53 0 -85.5 -42.5t-53.5 -115.5q-3 -20 16 -20h190q20 0 22 20z" />
    <glyph glyph-name="ecircumflex" unicode="&#xea;" horiz-adv-x="460" 
d="M414 541h-19l-67 74l-93 -74h-19l101 122h40zM449 252q-2 -15 -18 -15h-285q-8 -42 -4.5 -77.5t17.5 -61t38 -40t57 -14.5q45 0 110 25q19 0 18 -13q-2 -12 -20.5 -22.5t-42.5 -18t-47.5 -12t-35.5 -4.5q-48 0 -85 18.5t-59.5 52t-30 79.5t2.5 100q9 53 32.5 98.5t57 79
t75.5 52.5t88 19q88 0 120.5 -64t11.5 -182zM388 296q10 85 -9.5 121.5t-79.5 36.5q-53 0 -85.5 -42.5t-53.5 -115.5q-3 -20 16 -20h190q20 0 22 20z" />
    <glyph glyph-name="edieresis" unicode="&#xeb;" horiz-adv-x="460" 
d="M414 587q-6 -31 -41 -31t-29 31q4 31 40 31q34 0 30 -31zM308 587q-6 -31 -41 -31t-29 31q4 31 40 31q34 0 30 -31zM449 252q-2 -15 -18 -15h-285q-8 -42 -4.5 -77.5t17.5 -61t38 -40t57 -14.5q45 0 110 25q19 0 18 -13q-2 -12 -20.5 -22.5t-42.5 -18t-47.5 -12
t-35.5 -4.5q-48 0 -85 18.5t-59.5 52t-30 79.5t2.5 100q9 53 32.5 98.5t57 79t75.5 52.5t88 19q88 0 120.5 -64t11.5 -182zM388 296q10 85 -9.5 121.5t-79.5 36.5q-53 0 -85.5 -42.5t-53.5 -115.5q-3 -20 16 -20h190q20 0 22 20z" />
    <glyph glyph-name="igrave" unicode="&#xec;" horiz-adv-x="280" 
d="M289 540h-26l-111 77q-21 15 -18 31q2 12 11 19.5t22 7.5q8 0 14.5 -4t17.5 -18zM228 15q-3 -15 -22 -15h-156q-20 0 -17 15q2 11 12 17.5t22 12t22.5 11.5t12.5 17l61 347q2 11 -6.5 14.5t-19.5 5t-20 3.5t-7 11q1 7 11 13.5t23 11t27 7t24 2.5h38q20 0 17 -19l-70 -395
q-2 -11 6 -17.5t17.5 -12.5t17.5 -12.5t7 -16.5z" />
    <glyph glyph-name="iacute" unicode="&#xed;" horiz-adv-x="270" 
d="M308 648q-3 -17 -28 -31l-139 -77h-26l130 113q17 14 24.5 18t15.5 4q13 0 19 -7.5t4 -19.5zM218 15q-3 -15 -22 -15h-156q-20 0 -17 15q2 11 12 17.5t22 12t22.5 11.5t12.5 17l61 347q2 11 -6.5 14.5t-19.5 5t-20 3.5t-7 11q1 7 11 13.5t23 11t27 7t24 2.5h38
q20 0 17 -19l-70 -395q-2 -11 6 -17.5t17.5 -12.5t17.5 -12.5t7 -16.5z" />
    <glyph glyph-name="icircumflex" unicode="&#xee;" horiz-adv-x="276" 
d="M313 541h-19l-67 74l-93 -74h-19l101 122h40zM224 15q-3 -15 -22 -15h-156q-20 0 -17 15q2 11 12 17.5t22 12t22.5 11.5t12.5 17l61 347q2 11 -6.5 14.5t-19.5 5t-20 3.5t-7 11q1 7 11 13.5t23 11t27 7t24 2.5h38q20 0 17 -19l-70 -395q-2 -11 6 -17.5t17.5 -12.5
t17.5 -12.5t7 -16.5z" />
    <glyph glyph-name="idieresis" unicode="&#xef;" horiz-adv-x="270" 
d="M301 587q-6 -31 -42 -31q-35 0 -29 31q4 31 40 31q35 0 31 -31zM194 587q-6 -31 -41 -31t-29 31q4 31 40 31q34 0 30 -31zM218 15q-3 -15 -22 -15h-156q-20 0 -17 15q2 11 12 17.5t22 12t22.5 11.5t12.5 17l61 347q2 11 -6.5 14.5t-19.5 5t-20 3.5t-7 11q1 7 11 13.5
t23 11t27 7t24 2.5h38q20 0 17 -19l-70 -395q-2 -11 6 -17.5t17.5 -12.5t17.5 -12.5t7 -16.5z" />
    <glyph glyph-name="eth" unicode="&#xf0;" horiz-adv-x="491" 
d="M483 269q-12 -71 -37.5 -122t-59.5 -83.5t-73.5 -48t-81.5 -15.5q-83 0 -135 54q-14 14 -22.5 36.5t-12 48.5t-3 54t4.5 53q9 51 30 95.5t52 77.5t72 52t91 19q48 0 78.5 -21t32.5 -59l-2 69q0 22 -8 47t-26 45q-2 5 -10 11l-57 -32h-27l59 51l-9 4q-14 6 -31 10t-37 4
q-19 0 -41 -5t-45 -5q-14 0 -14 16q2 13 17 20.5t34.5 12t39.5 6t32 1.5q55 0 101 -23l25 21q17 14 24 18t16 4q28 -1 23 -27q-3 -15 -28 -31l-23 -13q14 -13 23.5 -28.5t17.5 -32.5q22 -54 24 -125t-14 -159zM404 279q4 22 4 43.5t-10 29.5q-19 43 -44 63t-54 20
q-30 0 -55.5 -14.5t-45 -40t-33 -59t-20.5 -70.5q-1 -5 -3 -21t-2 -37t3 -44t12 -42.5t25.5 -32.5t43.5 -13q141 0 175 193z" />
    <glyph glyph-name="ntilde" unicode="&#xf1;" horiz-adv-x="563" 
d="M489 594q-22 -22 -40.5 -29.5t-35.5 -7.5q-7 0 -21.5 4.5t-29.5 10t-28.5 10t-19.5 4.5q-14 0 -32 -7.5t-44 -33.5l8 46q23 21 41.5 28.5t34.5 7.5q7 0 20.5 -4.5t28.5 -10t28.5 -10t20.5 -4.5q15 0 33 9t44 32zM511 15q-3 -15 -23 -15h-156q-20 0 -17 15q1 9 11.5 14
t22.5 9.5t22 10t12 14.5l48 269q3 18 0.5 37t-10.5 34t-23 24.5t-36 9.5q-26 0 -60 -15t-78 -41l-56 -317q-2 -10 6.5 -15.5t18.5 -10t18 -9.5t7 -14q-3 -15 -22 -15h-156q-20 0 -17 15q1 9 11.5 14t22 9.5t21.5 10t12 14.5l63 357q2 11 -6.5 14.5t-19.5 5t-20 3.5t-7 11
q1 7 11 13.5t23 11t27 7t24 2.5h38q20 0 17 -19l-9 -49q48 35 90 55t80 20q67 0 94 -45.5t14 -117.5l-49 -268q-2 -10 6.5 -15.5t19 -10t18.5 -9.5t7 -14z" />
    <glyph glyph-name="ograve" unicode="&#xf2;" horiz-adv-x="495" 
d="M419 540h-26l-111 77q-21 15 -18 31q2 12 11 19.5t22 7.5q8 0 14.5 -4t17.5 -18zM482 238q-10 -55 -33 -100t-56.5 -77.5t-75 -50t-88.5 -17.5q-48 0 -83.5 18t-57 50.5t-28.5 77.5t2 99q16 88 60 151.5t109 87.5q46 17 86 17q46 0 81.5 -18t57.5 -51.5t29 -81t-3 -105.5
zM401 234q18 100 -5 155t-87 55q-29 0 -56 -13q-44 -20 -71 -71.5t-39 -121.5q-7 -40 -6 -75t12 -60.5t33 -40.5t56 -15q32 0 59 13.5t47.5 38.5t35 59t21.5 76z" />
    <glyph glyph-name="oacute" unicode="&#xf3;" horiz-adv-x="495" 
d="M428 648q-3 -17 -28 -31l-139 -77h-26l130 113q17 14 24.5 18t15.5 4q13 0 19 -7.5t4 -19.5zM482 238q-9 -54 -32 -99t-56 -77.5t-75 -50.5t-90 -18q-47 0 -82.5 17.5t-57.5 50t-29.5 77.5t2.5 100q16 88 60 151.5t109 87.5q46 17 86 17q45 0 80.5 -17.5t57.5 -50.5
t29.5 -80.5t-2.5 -107.5zM401 234q8 46 7.5 84.5t-11.5 66.5t-32.5 43.5t-55.5 15.5q-29 0 -56 -13q-44 -20 -71 -71.5t-39 -121.5q-7 -40 -6 -74.5t12 -60.5t32.5 -41t56.5 -15q31 0 58 13.5t48 38.5t35.5 59t21.5 76z" />
    <glyph glyph-name="ocircumflex" unicode="&#xf4;" horiz-adv-x="495" 
d="M427 541h-19l-67 74l-93 -74h-19l101 122h40zM482 238q-9 -54 -32 -99t-56 -77.5t-75 -50.5t-90 -18q-47 0 -82.5 17.5t-57.5 50t-29.5 77.5t2.5 100q16 88 60 151.5t109 87.5q46 17 86 17q45 0 80.5 -17.5t57.5 -50.5t29.5 -80.5t-2.5 -107.5zM401 234q8 46 7.5 84.5
t-11.5 66.5t-32.5 43.5t-55.5 15.5q-29 0 -56 -13q-44 -20 -71 -71.5t-39 -121.5q-7 -40 -6 -74.5t12 -60.5t32.5 -41t56.5 -15q31 0 58 13.5t48 38.5t35.5 59t21.5 76z" />
    <glyph glyph-name="otilde" unicode="&#xf5;" horiz-adv-x="495" 
d="M449 594q-22 -22 -40.5 -29.5t-35.5 -7.5q-7 0 -21.5 4.5t-29.5 10t-28.5 10t-19.5 4.5q-14 0 -32 -7.5t-44 -33.5l8 46q23 21 41.5 28.5t34.5 7.5q7 0 20.5 -4.5t28.5 -10t28.5 -10t20.5 -4.5q15 0 33 9t44 32zM482 238q-9 -54 -32 -99t-56 -77.5t-75 -50.5t-90 -18
q-47 0 -82.5 17.5t-57.5 50t-29.5 77.5t2.5 100q16 88 60 151.5t109 87.5q46 17 86 17q45 0 80.5 -17.5t57.5 -50.5t29.5 -80.5t-2.5 -107.5zM401 234q8 46 7.5 84.5t-11.5 66.5t-32.5 43.5t-55.5 15.5q-29 0 -56 -13q-44 -20 -71 -71.5t-39 -121.5q-7 -40 -6 -74.5
t12 -60.5t32.5 -41t56.5 -15q31 0 58 13.5t48 38.5t35.5 59t21.5 76z" />
    <glyph glyph-name="odieresis" unicode="&#xf6;" horiz-adv-x="495" 
d="M424 587q-6 -31 -41 -31t-29 31q4 31 40 31q34 0 30 -31zM318 587q-6 -31 -41 -31t-29 31q4 31 40 31q34 0 30 -31zM482 238q-9 -54 -32 -99t-56 -77.5t-75 -50.5t-90 -18q-47 0 -82.5 17.5t-57.5 50t-29.5 77.5t2.5 100q16 88 60 151.5t109 87.5q46 17 86 17
q45 0 80.5 -17.5t57.5 -50.5t29.5 -80.5t-2.5 -107.5zM401 234q8 46 7.5 84.5t-11.5 66.5t-32.5 43.5t-55.5 15.5q-29 0 -56 -13q-44 -20 -71 -71.5t-39 -121.5q-7 -40 -6 -74.5t12 -60.5t32.5 -41t56.5 -15q31 0 58 13.5t48 38.5t35.5 59t21.5 76z" />
    <glyph glyph-name="divide" unicode="&#xf7;" horiz-adv-x="445" 
d="M317 390q-7 -43 -57 -43q-48 0 -41 43t56 43t42 -43zM437 265q-2 -12 -11 -18t-19 -6h-321q-25 0 -19 24q5 23 29 23h320q24 0 21 -23zM273 143q-7 -43 -56 -43t-42 43t57 43q48 0 41 -43zM317 390q7 43 -42 43t-56 -43t41 -43q50 0 57 43zM273 143q7 43 -41 43
q-50 0 -57 -43t42 -43t56 43zM307 390q-6 -33 -45 -33t-33 33t45 33t33 -33zM263 143q-6 -33 -45 -33t-33 33t45 33q20 0 28 -9t5 -24z" />
    <glyph glyph-name="oslash" unicode="&#xf8;" horiz-adv-x="495" 
d="M482 238q-9 -54 -32 -99t-56 -77.5t-75 -50.5t-90 -18q-47 0 -82.5 17.5t-57.5 50t-29.5 77.5t2.5 100q16 88 60 151.5t109 87.5q46 17 86 17q45 0 80.5 -17.5t57.5 -50.5t29.5 -80.5t-2.5 -107.5zM401 234q8 46 7.5 84.5t-11.5 66.5q-9 21 -23 35l-177 -366q13 -7 41 -7
q31 0 58 13.5t48 38.5t35.5 59t21.5 76zM348 437q-11 7 -39 7q-29 0 -56 -13q-44 -20 -71 -71.5t-39 -121.5q-7 -40 -6 -74.5t12 -60.5q8 -19 23 -34z" />
    <glyph glyph-name="ugrave" unicode="&#xf9;" horiz-adv-x="563" 
d="M429 540h-26l-111 77q-21 15 -18 31q2 12 11 19.5t22 7.5q8 0 14.5 -4t17.5 -18zM513 30q-1 -8 -11.5 -14.5t-24 -11t-27 -7t-21.5 -2.5l-34 1q-24 0 -19 24l8 48q-90 -69 -162 -69q-70 0 -99 45.5t-15 121.5l45 254q2 11 -7 14t-19.5 4t-19.5 3.5t-7 12.5q1 7 11 13.5
t23.5 11t29.5 7t30 2.5h29q20 0 17 -19l-54 -303q-3 -20 -0.5 -40t11.5 -35.5t25 -25t39 -9.5q49 0 130 51l55 313q2 11 -7 14t-19.5 4t-19.5 3.5t-7 12.5q2 14 32.5 24t90.5 10q19 0 16 -19l-72 -406q-2 -11 6.5 -14.5t19.5 -5t19.5 -3.5t7.5 -10z" />
    <glyph glyph-name="uacute" unicode="&#xfa;" horiz-adv-x="563" 
d="M458 648q-3 -17 -28 -31l-139 -77h-26l130 113q17 14 24.5 18t15.5 4q13 0 19 -7.5t4 -19.5zM513 30q-1 -8 -11.5 -14.5t-24 -11t-27 -7t-21.5 -2.5l-34 1q-24 0 -19 24l8 48q-90 -69 -162 -69q-70 0 -99 45.5t-15 121.5l45 254q2 11 -7 14t-19.5 4t-19.5 3.5t-7 12.5
q1 7 11 13.5t23.5 11t29.5 7t30 2.5h29q20 0 17 -19l-54 -303q-3 -20 -0.5 -40t11.5 -35.5t25 -25t39 -9.5q49 0 130 51l55 313q2 11 -7 14t-19.5 4t-19.5 3.5t-7 12.5q2 14 32.5 24t90.5 10q19 0 16 -19l-72 -406q-2 -11 6.5 -14.5t19.5 -5t19.5 -3.5t7.5 -10z" />
    <glyph glyph-name="ucircumflex" unicode="&#xfb;" horiz-adv-x="563" 
d="M452 541h-19l-67 74l-93 -74h-19l101 122h40zM513 30q-1 -8 -11.5 -14.5t-24 -11t-27 -7t-21.5 -2.5l-34 1q-24 0 -19 24l8 48q-90 -69 -162 -69q-70 0 -99 45.5t-15 121.5l45 254q2 11 -7 14t-19.5 4t-19.5 3.5t-7 12.5q1 7 11 13.5t23.5 11t29.5 7t30 2.5h29
q20 0 17 -19l-54 -303q-3 -20 -0.5 -40t11.5 -35.5t25 -25t39 -9.5q49 0 130 51l55 313q2 11 -7 14t-19.5 4t-19.5 3.5t-7 12.5q2 14 32.5 24t90.5 10q19 0 16 -19l-72 -406q-2 -11 6.5 -14.5t19.5 -5t19.5 -3.5t7.5 -10z" />
    <glyph glyph-name="udieresis" unicode="&#xfc;" horiz-adv-x="563" 
d="M444 587q-6 -31 -41 -31t-29 31q4 31 40 31q34 0 30 -31zM338 587q-6 -31 -41 -31t-29 31q4 31 40 31q34 0 30 -31zM513 30q-1 -8 -11.5 -14.5t-24 -11t-27 -7t-21.5 -2.5l-34 1q-24 0 -19 24l8 48q-90 -69 -162 -69q-70 0 -99 45.5t-15 121.5l45 254q2 11 -7 14t-19.5 4
t-19.5 3.5t-7 12.5q1 7 11 13.5t23.5 11t29.5 7t30 2.5h29q20 0 17 -19l-54 -303q-3 -20 -0.5 -40t11.5 -35.5t25 -25t39 -9.5q49 0 130 51l55 313q2 11 -7 14t-19.5 4t-19.5 3.5t-7 12.5q2 14 32.5 24t90.5 10q19 0 16 -19l-72 -406q-2 -11 6.5 -14.5t19.5 -5t19.5 -3.5
t7.5 -10z" />
    <glyph glyph-name="yacute" unicode="&#xfd;" horiz-adv-x="529" 
d="M478 648q-3 -17 -28 -31l-139 -77h-26l130 113q17 14 24.5 18t15.5 4q13 0 19 -7.5t4 -19.5zM578 474q-1 -6 -10.5 -10t-22.5 -9t-25.5 -12.5t-19.5 -20.5l-281 -535q-24 -46 -52.5 -64t-60.5 -19q-14 0 -30.5 4.5t-30 12t-22 18t-6.5 22.5q3 16 21 16q9 0 15.5 -4
t14 -8.5t17 -8.5t25.5 -4q18 0 36 12t32 38l54 103l-70 417q-2 13 -12 20.5t-20.5 12t-19 8.5t-6.5 11q3 14 22 14h161q19 0 17 -14q-1 -6 -10 -9.5t-20 -7.5t-20 -9t-10 -12q0 2 0.5 0t0.5 -7l46 -281q2 -11 5 -11q5 0 10 11l145 281l2 6q1 8 -6 13t-16.5 9t-17 7.5
t-6.5 9.5q2 14 21 14l133 1q18 0 17 -15z" />
    <glyph glyph-name="thorn" unicode="&#xfe;" horiz-adv-x="522" 
d="M513 262q-9 -51 -32 -98.5t-58 -84t-82.5 -58.5t-105.5 -22q-19 0 -36 3t-40 9l-37 -210q-3 -19 -33 -19h-29q-9 0 -21.5 2.5t-24.5 7t-20 10.5t-6 14q1 9 10.5 11t21 3.5t21.5 5t12 14.5l141 795q2 11 -7 14t-19.5 4.5t-19.5 4t-7 11.5q1 7 11 13.5t23.5 11t27 7
t22.5 2.5h29q30 0 26 -19l-38 -215q-1 -13 6 -13q4 0 12 4q45 22 95 22q44 0 77.5 -18t54 -49.5t28 -73t-1.5 -89.5zM437 261q14 81 -12.5 129t-90.5 48q-9 0 -26 -1.5t-34.5 -6t-31 -12.5t-15.5 -20l-56 -316q-2 -12 6.5 -18.5t21 -9.5t25.5 -3.5t21 -0.5q31 0 62 13.5
t56.5 40t45 66t28.5 91.5z" />
    <glyph glyph-name="ydieresis" unicode="&#xff;" horiz-adv-x="529" 
d="M464 587q-6 -31 -41 -31t-29 31q4 31 40 31q34 0 30 -31zM358 587q-6 -31 -41 -31t-29 31q4 31 40 31q34 0 30 -31zM578 474q-1 -6 -10.5 -10t-22.5 -9t-25.5 -12.5t-19.5 -20.5l-281 -535q-24 -46 -52.5 -64t-60.5 -19q-14 0 -30.5 4.5t-30 12t-22 18t-6.5 22.5
q3 16 21 16q9 0 15.5 -4t14 -8.5t17 -8.5t25.5 -4q18 0 36 12t32 38l54 103l-70 417q-2 13 -12 20.5t-20.5 12t-19 8.5t-6.5 11q3 14 22 14h161q19 0 17 -14q-1 -6 -10 -9.5t-20 -7.5t-20 -9t-10 -12q0 2 0.5 0t0.5 -7l46 -281q2 -11 5 -11q5 0 10 11l145 281l2 6q1 8 -6 13
t-16.5 9t-17 7.5t-6.5 9.5q2 14 21 14l133 1q18 0 17 -15z" />
    <glyph glyph-name="dotlessi" unicode="&#x131;" horiz-adv-x="270" 
d="M218 15q-3 -15 -22 -15h-156q-20 0 -17 15q2 11 12 17.5t22 12t22.5 11.5t12.5 17l61 347q2 11 -6.5 14.5t-19.5 5t-20 3.5t-7 11q1 7 11 13.5t23 11t27 7t24 2.5h38q20 0 17 -19l-70 -395q-2 -11 6 -17.5t17.5 -12.5t17.5 -12.5t7 -16.5z" />
    <glyph glyph-name="Lslash" unicode="&#x141;" horiz-adv-x="514" 
d="M-17 138l316 343h63l-313 -343h-66zM482 17q-3 -17 -23 -17h-419q-20 0 -17 15q1 9 11 14t22 9t22 9t12 15l95 539q2 10 -6.5 15.5t-18.5 10t-18.5 9.5t-6.5 14q2 14 23 14h156q18 0 16 -14q-2 -9 -12 -14t-22 -9.5t-22 -9.5t-12 -14l-94 -534q-3 -19 17 -19h241
q9 0 15.5 9t13 20.5t13 20.5t15.5 9q15 0 12 -17z" />
    <glyph glyph-name="lslash" unicode="&#x142;" horiz-adv-x="260" 
d="M-17 138l316 343h63l-313 -343h-66zM218 15q-3 -15 -22 -15h-156q-20 0 -17 15q1 9 11 14t22 9t22 9.5t12 15.5l103 582q2 11 -7 14t-19.5 4.5t-19.5 4t-7 11.5q1 7 11 13.5t23.5 11t27 7t22.5 2.5h39q19 0 16 -20l-111 -630q-2 -10 6 -15.5t18.5 -9.5t18.5 -9t7 -14z
" />
    <glyph glyph-name="OE" unicode="&#x152;" horiz-adv-x="921" 
d="M810 49q11 0 18.5 9t14 20t13 20t15.5 9q14 0 11 -19l-12 -67q-5 -21 -25 -21h-436q-16 0 -19 10q-48 -14 -96 -14h-13q-262 0 -202 336q59 336 321 336h13q51 0 90 -15q5 11 21 11h439q20 0 17 -20l-12 -68q-4 -19 -19 -19q-9 0 -12.5 9t-6 20t-6 20t-12.5 9h-261
q-19 0 -22 -18l-38 -216q-3 -20 18 -20h113q9 0 16 9t13.5 20.5t13 20.5t15.5 9q15 0 12 -20l-22 -124q-4 -22 -19 -22q-9 0 -12.5 9t-6 20.5t-6.5 20.5t-13 9h-113q-21 0 -25 -22l-39 -225q-3 -17 14 -17h260zM487 584q-35 30 -89 35q-44 -3 -82.5 -23t-70 -56t-54 -88.5
t-34.5 -119.5q-24 -136 15.5 -208t124.5 -79q56 5 101 35q44 30 76 78l62 347q-15 50 -49 79z" />
    <glyph glyph-name="oe" unicode="&#x153;" horiz-adv-x="800" 
d="M789 252q-2 -15 -18 -15h-285q-8 -42 -4.5 -77.5t17.5 -61t38 -40t57 -14.5q45 0 110 25q19 0 18 -13q-2 -12 -20.5 -22.5t-42.5 -18t-47.5 -12t-35.5 -4.5q-49 0 -92 24t-65 66q-35 -48 -86.5 -72t-103.5 -24q-47 0 -82.5 17.5t-57.5 50t-29.5 77.5t2.5 100
q10 58 34 105.5t57.5 81t75.5 51.5t88 18q51 0 92 -24t61 -69q38 46 88.5 71.5t98.5 25.5q88 0 120.5 -64t11.5 -182zM728 296q10 85 -9.5 121.5t-79.5 36.5q-53 0 -85.5 -42.5t-53.5 -115.5q-3 -20 16 -20h190q20 0 22 20zM405 258q16 88 -8.5 137t-87.5 49q-29 0 -56 -13
q-44 -20 -71 -71.5t-39 -121.5q-7 -40 -6 -74.5t12 -60.5t32.5 -41t56.5 -15q30 0 56.5 13t47.5 37t36 57t22 73z" />
    <glyph glyph-name="Scaron" unicode="&#x160;" horiz-adv-x="464" 
d="M285 809q-2 -14 0 -27.5t10 -23.5q8 -11 21 -16t24 -4q12 0 26 4.5t25 13.5q14 11 22 25.5t10 27.5h55q-4 -21 -16.5 -43t-31.5 -39.5t-44 -28.5t-53 -11t-49 10.5t-33.5 27.5t-17 39t-0.5 45h52zM442 186q-9 -50 -30.5 -86.5t-52.5 -60t-69.5 -35t-80.5 -11.5
q-38 0 -81 10t-94 33l9 96l1 4q3 17 16 17q20 0 23 -20l7 -39q14 -18 44 -34t78 -16q66 0 103 34.5t48 97.5q6 34 -20.5 68t-96.5 66q-71 32 -106 78.5t-24 109.5q7 41 27 73t49.5 53.5t66 33t76.5 11.5q35 0 71.5 -9.5t74.5 -30.5l-8 -96q-2 -11 -6.5 -16t-15.5 -5
q-15 0 -18 20l-6 39q-15 17 -38.5 31.5t-59.5 14.5q-58 0 -91.5 -30.5t-41.5 -78.5q-15 -80 123 -144q71 -32 102.5 -75t20.5 -103z" />
    <glyph glyph-name="scaron" unicode="&#x161;" horiz-adv-x="421" 
d="M236 649q-2 -14 0 -27.5t10 -23.5q8 -11 21 -16t25 -4q12 0 26 4.5t25 13.5q14 11 21.5 25.5t9.5 27.5h55q-4 -21 -16 -43t-31 -39.5t-44 -28.5t-53 -11t-49 10.5t-33.5 27.5t-17.5 39t-1 45h52zM390 136q-12 -69 -62 -103t-135 -34q-35 0 -72 8t-76 27l-1 102
q3 16 27 16q14 0 16 -15l7 -44q6 -22 27 -37t60 -15q60 0 93 28t41 70q9 50 -110 97q-119 46 -102 141q11 57 59 88.5t126 31.5q30 0 60.5 -6.5t60.5 -21.5l1 -102q-3 -15 -22 -15t-21 14l-8 44q-11 22 -25.5 36t-44.5 14q-48 0 -75 -21t-33 -55q-11 -59 108 -105
q63 -24 86 -59.5t15 -83.5z" />
    <glyph glyph-name="Ydieresis" unicode="&#x178;" horiz-adv-x="612" 
d="M527 771q-6 -31 -41 -31t-29 31t40 31q36 0 30 -31zM421 771q-6 -31 -41 -31t-29 31t40 31q36 0 30 -31zM671 649q-2 -9 -11.5 -14t-22 -9t-25 -9t-19.5 -15l-193 -273q-16 -22 -16 -33l-41 -232q-2 -10 6.5 -15.5t19 -10t18.5 -9.5t7 -14q-3 -15 -23 -15h-156
q-19 0 -16 15q1 9 11 14t22 9.5t21.5 10t11.5 14.5l41 234q3 14 -4 33l-107 272q-3 9 -13.5 14t-21.5 9.5t-19.5 9.5t-6.5 14q3 15 23 15h165q20 0 17 -15q-1 -7 -9.5 -10.5t-23.5 -8.5l-15 -5q-6 -1 -8 -9q-2 -5 1 -11l81 -217q3 -8 8 -8q4 0 9 8l155 217q4 8 4 10
q1 6 -6 6l-15 4q-14 4 -20 11t-5 13q3 15 23 15h136q20 0 17 -15z" />
    <glyph glyph-name="Zcaron" unicode="&#x17d;" horiz-adv-x="530" 
d="M335 809q-2 -14 0 -27.5t10 -23.5q8 -11 21 -16t24 -4q12 0 26 4.5t25 13.5q14 11 22 25.5t10 27.5h55q-4 -21 -16.5 -43t-31.5 -39.5t-44 -28.5t-53 -11t-49 10.5t-33.5 27.5t-17 39t-0.5 45h52zM479 20q-5 -20 -24 -20h-415q-21 0 -16 20l3 19q2 10 8 19t13 17l425 529
q1 1 1 4q1 4 -5 4h-242q-15 0 -24.5 -9t-16.5 -20t-13 -20t-15 -9q-16 0 -10 29l11 62q3 19 23 19h375q20 0 17 -19l-4 -20q-2 -11 -8 -20t-13 -17l-425 -529q-2 -5 -2.5 -6t0.5 1q-2 -3 6 -3h281q15 0 24.5 9t16 20t13 20t16.5 9q5 0 8 -7.5t1 -21.5z" />
    <glyph glyph-name="zcaron" unicode="&#x17e;" horiz-adv-x="426" 
d="M236 649q-2 -14 0 -27.5t10 -23.5q8 -11 21 -16t25 -4q12 0 26 4.5t25 13.5q14 11 21.5 25.5t9.5 27.5h55q-4 -21 -16 -43t-31 -39.5t-44 -28.5t-53 -11t-49 10.5t-33.5 27.5t-17.5 39t-1 45h52zM352 0h-312q-21 0 -16 20q3 17 15 32l312 385q1 2 1.5 2.5t0.5 1.5t1 2
q1 6 -12 6h-164q-11 0 -19.5 -9t-16 -20t-15.5 -20t-18 -9q-20 0 -17 19l34 78h312q19 0 16 -20q-3 -16 -16 -32l-310 -374q-3 -8 -3 -7q-2 -6 12 -6h165q10 0 18 9t16 20t16 20t19 9q19 0 16 -19z" />
    <glyph glyph-name="florin" unicode="&#x192;" horiz-adv-x="407" 
d="M466 644q-4 -19 -24 -19q-54 0 -85.5 -29t-43.5 -98q-1 -10 7 -10h49q20 0 16 -24q-4 -25 -24 -25h-50q-9 0 -10 -10l-80 -450q-15 -88 -67.5 -127t-146.5 -39q-21 0 -16 20q3 19 23 19q54 0 85.5 29t43.5 98l78 442q3 18 -17 18h-19q-19 0 -15 25q4 24 24 24h29
q11 0 12 10q15 88 67.5 127t146.5 39q20 0 17 -20z" />
    <glyph glyph-name="circumflex" unicode="&#x2c6;" horiz-adv-x="273" 
d="M313 541h-19l-67 74l-93 -74h-19l101 122h40z" />
    <glyph glyph-name="caron" unicode="&#x2c7;" horiz-adv-x="273" 
d="M335 663l-101 -122h-40l-57 122h19l67 -74l93 74h19z" />
    <glyph glyph-name="uni02C9" unicode="&#x2c9;" horiz-adv-x="327" 
d="M375 583h-252l11 62h252z" />
    <glyph glyph-name="breve" unicode="&#x2d8;" horiz-adv-x="320" 
d="M198 659q-5 -27 10 -42t38 -15q26 0 46 17t24 40h65q-4 -21 -16 -43t-31 -39.5t-44 -28.5t-53 -11t-49 10.5t-34 27.5t-17.5 39t-0.5 45h62z" />
    <glyph glyph-name="dotaccent" unicode="&#x2d9;" horiz-adv-x="155" 
d="M236 771q-6 -31 -46 -31t-34 31t45 31q41 0 35 -31z" />
    <glyph glyph-name="ring" unicode="&#x2da;" horiz-adv-x="214" 
d="M266 606q-5 -29 -29 -49.5t-53 -20.5t-45.5 20t-11.5 50q5 26 27.5 47.5t53.5 21.5q27 0 45 -20t13 -49zM235 606q2 14 -7 26t-25 12q-15 0 -29 -11t-17 -27q-3 -17 6 -28.5t26 -11.5q16 0 29.5 11.5t16.5 28.5z" />
    <glyph glyph-name="ogonek" unicode="&#x2db;" horiz-adv-x="269" 
d="M181 -188q-22 -9 -46 -12.5t-53 -3.5q-17 0 -33.5 5t-28 18.5t-16.5 37.5t2 62q3 17 7.5 37t12.5 43q1 1 16 1h41q-24 -71 -30 -108q-6 -34 11 -46.5t47 -12.5q34 0 78 25z" />
    <glyph glyph-name="tilde" unicode="&#x2dc;" horiz-adv-x="318" 
d="M368 594q-23 -22 -41.5 -29.5t-35.5 -7.5q-7 0 -21 4.5t-29 10t-28.5 10t-20.5 4.5q-15 0 -32.5 -9t-43.5 -32l8 46q23 21 41.5 28.5t34.5 7.5q7 0 20.5 -4.5t28.5 -10t28.5 -10t20.5 -4.5q15 0 33.5 9t44.5 32z" />
    <glyph glyph-name="hungarumlaut" unicode="&#x2dd;" horiz-adv-x="372" 
d="M431 648q-3 -17 -28 -31l-139 -77h-26l130 113q17 14 24.5 18t15.5 4q13 0 19 -7.5t4 -19.5zM308 648q-3 -17 -28 -31l-139 -77h-26l130 113q17 14 24.5 18t15.5 4q13 0 19 -7.5t4 -19.5z" />
    <glyph glyph-name="uni037E" unicode="&#x37e;" horiz-adv-x="172" 
d="M158 230q-8 -42 -57 -42q-48 0 -40 42q7 43 55 43q49 0 42 -43zM121 24q-2 -14 -8 -28.5t-15.5 -26.5t-22.5 -19.5t-29 -7.5q-24 0 -21 17q1 7 6.5 10t11.5 5q1 1 2 1q4 0 5 1q11 3 16 10t7 13h-5q-48 0 -41 43q9 43 56 43q50 0 41 -43z" />
    <glyph glyph-name="uni03A9" unicode="&#x3a9;" horiz-adv-x="596" 
d="M409 15q-3 -15 -22 -15l-57 -1q-20 0 -17 16q2 11 4.5 26t5.5 30.5t5 29t4 21.5q15 6 32 13q14 6 31 15t34 21q32 23 56.5 67t38.5 124q9 49 8 94.5t-16.5 81t-49 57t-89.5 21.5q-54 0 -94.5 -23t-69.5 -59.5t-46.5 -82t-25.5 -90.5q-8 -44 -8.5 -74t4 -51t13.5 -35.5
t21 -29.5q11 -14 25 -23.5t25 -14.5q13 -6 27 -10q-2 -12 -5 -27.5t-6 -30.5t-5.5 -28.5t-4.5 -22.5q-2 -15 -21 -15h-66q-20 0 -18 15q2 9 13 14t24 9.5t22.5 9.5t8.5 15q-22 8 -40 20q-17 11 -33 27t-26 39q-9 19 -18 32.5t-15 33.5t-5.5 54t11.5 94q2 10 8 36.5t19 60.5
t35.5 71t57.5 67.5t84.5 50.5t115.5 20q67 0 109.5 -19.5t67 -50t34 -67t11 -70.5t-2 -61.5t-5.5 -39.5q-6 -30 -17.5 -63.5t-26 -65t-30 -58t-30.5 -40.5q-22 -20 -44 -34t-40 -22q-21 -10 -41 -15q-3 -9 3 -14.5t14.5 -10t16 -9.5t6.5 -13z" />
    <glyph glyph-name="pi" unicode="&#x3c0;" horiz-adv-x="575" 
d="M484 497q-20 0 -23 -20l-37 -213q-1 -5 -9 -6t-15.5 -0.5t-11.5 1.5t4 0q10 -4 11 -8t-1.5 -6t-6 -2t-2.5 5q-1 -4 -4.5 -8t-7.5 -7t-7 -3t-2 5l2 20q1 5 -1 6.5t-4.5 2t-4.5 1.5t-1 5q1 8 -2 4.5t-7 -9.5t-7 -9t-1 7l38 214q3 20 -17 20h117zM507 19q-3 -20 -23 -20
q-94 0 -132.5 39t-22.5 127l35 196l75 -8l-33 -188q-12 -69 9.5 -98t75.5 -29q20 0 16 -19zM601 458q-3 -19 -19 -19q-9 0 -12.5 9t-5.5 20t-6 20t-14 9h-204q-20 0 -23 -20l-73 -413l-4 -25l-4 -24q-3 -15 -24 -15h-36q-19 0 -16 15q1 8 2 13t1.5 9.5t1 10t2.5 15.5l73 414
q3 20 -17 20h-51q-10 0 -17.5 -9t-14 -20t-13 -20t-15.5 -9q-15 0 -11 19l12 69q3 19 24 19h459q19 0 16 -19z" />
    <glyph glyph-name="endash" unicode="&#x2013;" horiz-adv-x="515" 
d="M505 255q-2 -10 -10.5 -15t-18.5 -5h-391q-25 0 -20 20q4 19 28 19h390q25 0 22 -19z" />
    <glyph glyph-name="emdash" unicode="&#x2014;" horiz-adv-x="779" 
d="M769 255q-2 -10 -10.5 -15t-18.5 -5h-655q-25 0 -20 20q4 19 28 19h654q25 0 22 -19z" />
    <glyph glyph-name="quoteleft" unicode="&#x2018;" horiz-adv-x="172" 
d="M225 612q-6 -38 -55 -38q-23 0 -34 11t-8 30l4 18q2 13 8 26.5t15 25t21.5 19t29.5 7.5q23 0 22 -16q-2 -8 -13 -12l-12 -3q-12 -5 -16.5 -11.5t-6.5 -12.5h5q48 0 40 -44z" />
    <glyph glyph-name="quoteright" unicode="&#x2019;" horiz-adv-x="172" 
d="M232 653q-2 -13 -8 -27t-15.5 -25t-22.5 -18.5t-29 -7.5q-24 0 -21 16q1 9 12 11q3 2 6.5 2.5t6.5 1.5q12 4 16.5 11t6.5 12h-5q-49 0 -41 41t55 41q50 0 42 -41z" />
    <glyph glyph-name="quotesinglbase" unicode="&#x201a;" horiz-adv-x="172" 
d="M121 21q-2 -13 -8 -27t-15.5 -25t-22.5 -18.5t-29 -7.5q-24 0 -21 16q1 7 6.5 10t11.5 5q2 0 3.5 0.5t3.5 0.5q11 4 16 10.5t7 12.5h-5q-49 0 -41 41t55 41q50 0 42 -41z" />
    <glyph glyph-name="quotedblleft" unicode="&#x201c;" horiz-adv-x="279" 
d="M332 615q-6 -41 -56 -41q-23 0 -34 11t-8 30l4 18q2 13 8 27t15.5 25t22 18.5t29.5 7.5q19 0 22 -16q-2 -8 -13 -12l-12 -3q-12 -5 -16.5 -11.5t-6.5 -12.5h4q49 0 41 -41zM225 612q-6 -38 -55 -38q-23 0 -34 11t-8 30l4 18q2 13 8 26.5t15 25t21.5 19t29.5 7.5
q23 0 22 -16q-2 -8 -13 -12l-12 -3q-12 -5 -16.5 -11.5t-6.5 -12.5h5q48 0 40 -44z" />
    <glyph glyph-name="quotedblright" unicode="&#x201d;" horiz-adv-x="277" 
d="M337 653q-2 -13 -8 -27t-15.5 -25t-22.5 -18.5t-29 -7.5q-24 0 -21 16q1 9 12 11q3 2 6.5 2.5t6.5 1.5q12 4 16.5 11t6.5 12h-5q-49 0 -41 41t55 41q50 0 42 -41zM232 653q-2 -13 -8 -27t-15.5 -25t-22.5 -18.5t-29 -7.5q-24 0 -21 16q1 9 12 11q3 2 6.5 2.5t6.5 1.5
q12 4 16.5 11t6.5 12h-5q-49 0 -41 41t55 41q50 0 42 -41z" />
    <glyph glyph-name="quotedblbase" unicode="&#x201e;" horiz-adv-x="317" 
d="M266 20q-3 -13 -8.5 -27t-15 -25t-22.5 -18.5t-29 -7.5q-24 0 -21 16q1 10 12 11q2 2 5.5 2.5t6.5 1.5q12 4 16.5 11t6.5 12h-5q-48 0 -40 41q6 41 55 41q48 0 42 -41zM121 20q-3 -13 -8.5 -27t-15 -25t-22.5 -18.5t-29 -7.5q-24 0 -21 16q1 10 12 11q2 2 5.5 2.5
t6.5 1.5q12 4 16.5 11t6.5 12h-5q-48 0 -40 41q6 41 55 41q48 0 42 -41z" />
    <glyph glyph-name="dagger" unicode="&#x2020;" horiz-adv-x="501" 
d="M532 489q-5 -28 -21 -46.5t-39 -18.5q-6 0 -21 8t-35 17.5t-43 18.5t-45 11q-12 -86 30 -135q-46 -112 -80 -230t-58 -246h-19q20 130 27.5 245.5t0.5 230.5q59 51 78 135q-24 -2 -50.5 -11t-49 -18.5t-39 -17.5t-20.5 -8q-24 0 -35.5 18t-6.5 47q5 28 21.5 46t38.5 18
q6 0 20.5 -7.5t34.5 -17.5t43 -18.5t47 -10.5q1 26 -3.5 51t-10.5 45t-11 34.5t-4 19.5q5 24 25.5 38.5t49.5 14.5q28 0 44 -13t11 -36q-1 -6 -11.5 -21.5t-23.5 -36.5t-26 -46t-19 -50q24 1 50 9.5t48.5 18.5t39 18t21.5 8q24 0 35 -17.5t6 -46.5z" />
    <glyph glyph-name="daggerdbl" unicode="&#x2021;" horiz-adv-x="501" 
d="M460 81q-5 -29 -22.5 -46.5t-41.5 -17.5q-5 0 -18.5 7.5t-32.5 17.5t-41.5 18.5t-46.5 10.5q-3 -25 1 -50t10 -46t10.5 -36.5t3.5 -21.5q-4 -23 -24 -36t-48 -13q-29 0 -45 14.5t-11 38.5q1 4 11 18.5t23 35t26.5 45.5t21.5 51q-24 -2 -51 -10.5t-50 -18.5t-40.5 -17.5
t-23.5 -7.5q-22 0 -32 18t-5 46q5 29 23 47t42 18q4 0 17.5 -8t33 -17.5t42.5 -18.5t47 -11q6 45 0.5 92t-21.5 99q35 55 57 103.5t32 93.5q-24 -2 -50.5 -11t-49 -18.5t-39 -17.5t-20.5 -8q-24 0 -35.5 18t-6.5 47q5 28 21.5 46t38.5 18q6 0 20.5 -7.5t34.5 -17.5t43 -18.5
t47 -10.5q1 26 -3.5 51t-10.5 45t-11 34.5t-4 19.5q5 24 25.5 38.5t49.5 14.5q28 0 44 -13t11 -36q-1 -6 -11.5 -21.5t-23.5 -36.5t-26 -46t-19 -50q24 1 50 9.5t48.5 18.5t39 18t21.5 8q24 0 35 -17.5t6 -46.5q-5 -28 -21 -46.5t-39 -18.5q-6 0 -21 8t-35 17.5t-43 18.5
t-45 11q-11 -83 19 -197q-69 -110 -87 -191q22 2 48.5 11t49.5 18.5t41 17.5t24 8q23 0 32.5 -18.5t4.5 -46.5z" />
    <glyph glyph-name="bullet" unicode="&#x2022;" horiz-adv-x="364" 
d="M371 351q-5 -29 -21.5 -55.5t-39.5 -46.5t-51.5 -31.5t-58.5 -11.5t-54.5 11.5t-40 31.5t-22 46t-1.5 56t21 56t39.5 45.5t51.5 31t58 11.5q29 0 53.5 -11.5t40.5 -31t23 -46t2 -55.5z" />
    <glyph glyph-name="ellipsis" unicode="&#x2026;" horiz-adv-x="564" 
d="M516 39q-8 -39 -56 -39q-50 0 -42 39q6 39 56 39q23 0 34 -10.5t8 -28.5zM320 39q-8 -39 -56 -39t-42 39q3 20 18 29.5t38 9.5t34 -10.5t8 -28.5zM125 39q-8 -39 -56 -39q-50 0 -42 39q6 39 56 39q23 0 34 -10.5t8 -28.5z" />
    <glyph glyph-name="perthousand" unicode="&#x2030;" horiz-adv-x="1002" 
d="M975 158q-13 -72 -58.5 -116.5t-114.5 -44.5q-32 0 -56 12t-39 33t-20 50.5t1 65.5q10 57 40 99t75 59q15 6 29.5 8.5t28.5 2.5q31 0 55.5 -11.5t39.5 -33.5t20.5 -53.5t-1.5 -70.5zM395 498q-13 -72 -58.5 -116.5t-114.5 -44.5q-32 0 -56 12t-39 33t-20 50.5t1 65.5
q10 57 39.5 99t75.5 59q15 6 29.5 8.5t28.5 2.5q31 0 55.5 -11.5t39.5 -33.5t20.5 -53.5t-1.5 -70.5zM709 663l-592 -664h-55l595 664h52zM665 158q-13 -72 -58.5 -116.5t-114.5 -44.5q-32 0 -56 12t-39 33t-20 50.5t1 65.5q10 57 40 99t75 59q15 6 29.5 8.5t28.5 2.5
q31 0 55.5 -11.5t39.5 -33.5t20.5 -53.5t-1.5 -70.5zM912 156q11 60 -2.5 94.5t-55.5 34.5q-15 0 -34 -8q-27 -11 -44 -42.5t-25 -76.5q-9 -51 4 -84t55 -33q39 0 65.5 30.5t36.5 84.5zM331 496q11 60 -2 94.5t-55 34.5q-15 0 -34 -8q-27 -11 -44 -42.5t-25 -76.5
q-9 -51 4 -84t55 -33q39 0 65.5 30.5t35.5 84.5zM602 156q11 60 -2.5 94.5t-55.5 34.5q-15 0 -34 -8q-27 -11 -44 -42.5t-25 -76.5q-9 -51 4 -84t55 -33q39 0 65.5 30.5t36.5 84.5z" />
    <glyph glyph-name="guilsinglleft" unicode="&#x2039;" horiz-adv-x="302" 
d="M325 445q0 -3 -4 -7l-167 -184l-3 -7.5t-1 -1.5v-2q0 -1 0.5 -2.5t0.5 -3.5l102 -183q1 -4 1 -9q-2 -5 -7 -5h-37q-10 0 -21 8l-124 190q-2 2 -2 8q0 -1 1 1.5l3 7.5l196 188q8 7 19 7h37q8 0 6 -5z" />
    <glyph glyph-name="guilsinglright" unicode="&#x203a;" horiz-adv-x="303" 
d="M291 246q0 -4 -4 -8l-192 -190q-11 -8 -24 -8h-36q-8 0 -6 5q0 4 6 9l164 183q2 1 4 9v8l-104 184v4q0 1 -1 2q1 6 9 6h36q13 -2 18 -7l130 -189v-8v0z" />
    <glyph glyph-name="fraction" unicode="&#x2044;" horiz-adv-x="605" 
d="M667 663l-592 -664h-55l595 664h52z" />
    <glyph glyph-name="uni2074" unicode="&#x2074;" horiz-adv-x="369" 
d="M397 549q-3 -15 -19 -15l-36 -1q-6 -1 -8 -6l-14 -79q-3 -16 -19 -16h-23q-18 0 -15 16l14 79q1 6 -5 6h-153q-17 0 -14 16l3 15q1 7 3.5 12t7.5 11l198 230l8 8q10 10 24 10h23q17 0 14 -16l-41 -232q-1 -7 6 -7h35q17 0 14 -16zM319 762l-154 -183v-1q0 -1 1 0.5t3 1.5
h112q6 0 7 7z" />
    <glyph glyph-name="Euro" unicode="&#x20ac;" horiz-adv-x="594" 
d="M545 34q-87 -39 -171 -39q-140 0 -198 84q-23 34 -30.5 90t-2.5 116h-54q-20 0 -15 20q4 19 23 19h50l6 31h-51q-21 0 -16 20q4 19 23 19h51q16 67 42 110.5t64 79.5q89 85 227 85q88 0 156 -40l-15 -87q-6 -29 -20 -29q-13 0 -18 29l-5 29q-21 49 -100 49
q-69 0 -128 -41.5t-97 -122.5q-8 -19 -13.5 -29.5t-12.5 -32.5h202q20 0 17 -19q-2 -10 -8.5 -15t-14.5 -5h-203l-6 -31h203q20 0 17 -19q-5 -20 -24 -20h-199q0 -16 -1.5 -40t0.5 -37q10 -81 54 -122.5t113 -41.5q79 0 116 49l16 29q14 29 29 29t10 -29z" />
    <glyph glyph-name="trademark" unicode="&#x2122;" horiz-adv-x="734" 
d="M733 308q-2 -8 -13 -8h-83q-13 0 -11 8q1 5 6.5 7.5t12 5t12 5.5t6.5 8l45 255v4q-2 0 -8 -11l-141 -243q-11 -18 -21 -18q-12 0 -15 18l-53 254q-3 11 -4 11q-2 0 -2 -5l-47 -264q-1 -6 3.5 -9t10 -5.5t10 -5t3.5 -7.5q-2 -8 -12 -8h-74q-12 0 -10 8q1 5 6.5 7.5t12 5
t12 5.5t6.5 8l52 296q1 5 -3.5 8t-10 5.5t-10 5t-3.5 7.5q2 8 12 8h68q11 0 14 -17l50 -254q1 -4 4 -4q2 0 3 4l150 254q11 17 21 17h54q11 0 9 -8q-1 -9 -19 -13q-16 -3 -18 -14l-52 -294q-1 -6 3.5 -9t10 -5.5t10 -5t3.5 -7.5zM392 616q-2 -11 -11 -11q-5 0 -7 5t-3.5 11
t-3.5 11t-7 5h-62q-9 0 -12 -11l-51 -291q-2 -11 14 -14q14 -6 13 -13q-2 -8 -12 -8h-85q-12 0 -10 8q1 4 6.5 7t12 5.5t12 5.5t6.5 8l51 292q3 11 -9 11h-67q-5 0 -8.5 -5t-7.5 -11t-7.5 -11t-8.5 -5q-9 0 -6 11l6 38q3 10 14 10h240q9 0 8 -10z" />
    <glyph glyph-name="partialdiff" unicode="&#x2202;" horiz-adv-x="528" 
d="M549 429q-9 -51 -27.5 -105.5t-43.5 -104.5t-55 -91t-63 -65q-86 -63 -169 -63q-34 0 -63 10.5t-49 30.5t-29 49.5t-2 68.5q12 69 46 120t78 84t92.5 49.5t89.5 16.5q55 0 93 -16q3 -4 10 -4q6 0 10 10.5t9 40.5q4 24 3.5 52t-12 51.5t-36 39.5t-68.5 16q-34 0 -80 -9
q-2 -1 -8 -1q-14 0 -11 16q7 18 28 24q54 16 104 16q51 0 84.5 -18t51.5 -49.5t22 -75t-5 -93.5zM439 327q1 19 -6 25q-56 24 -102 24q-40 0 -73.5 -18.5t-59 -48.5t-42.5 -68t-24 -77q-18 -103 69 -103q85 0 142.5 65.5t95.5 200.5z" />
    <glyph glyph-name="Delta" unicode="&#x2206;" horiz-adv-x="596" 
d="M541 0h-521l387 700zM472 60l-99 501l-278 -501h377z" />
    <glyph glyph-name="minus" unicode="&#x2212;" horiz-adv-x="445" 
d="M437 265q-2 -12 -11 -18t-19 -6h-321q-25 0 -19 24q5 23 29 23h320q24 0 21 -23z" />
    <glyph glyph-name="uni2215" unicode="&#x2215;" horiz-adv-x="605" 
d="M667 663l-592 -664h-55l595 664h52z" />
    <glyph glyph-name="uni2219" unicode="&#x2219;" horiz-adv-x="173" 
d="M178 342q-6 -39 -56 -39q-48 0 -42 39q7 39 56 39q23 0 34.5 -10.5t7.5 -28.5z" />
    <glyph glyph-name="radical" unicode="&#x221a;" horiz-adv-x="645" 
d="M726 769q-2 -9 -12 -14t-22.5 -10.5t-24.5 -12.5t-19 -20l-374 -712h-29l-83 417q-3 13 -13 20.5t-20.5 12.5t-18.5 10t-6 14q3 14 22 14h94q4 0 8 -11.5t10.5 -48.5t19 -106t33.5 -184q3 -11 5 -11q4 0 9 11l325 631q9 14 34 14l45 1q18 0 17 -15z" />
    <glyph glyph-name="infinity" unicode="&#x221e;" horiz-adv-x="744" 
d="M751 351q-8 -47 -30.5 -86t-54.5 -67t-71 -43t-81 -15q-102 0 -141 84q-2 6 -5 6q-4 0 -5 -6q-67 -59 -142 -59q-36 0 -65 12.5t-48 36t-26.5 58t0.5 78.5q7 43 26.5 77.5t47 59t61 37.5t69.5 13q76 0 121 -64q0 -5 3 -5q2 0 7 5q70 88 174 88q42 0 75 -16t54.5 -44
t30 -66.5t0.5 -83.5zM687 351q10 55 -19.5 88t-89.5 33q-57 0 -99 -33.5t-53 -90.5q-9 -54 19 -86.5t85 -32.5q30 0 56.5 9t47 25t34.5 38.5t19 49.5zM368 348q10 58 -17.5 84t-78.5 26q-54 0 -87.5 -26.5t-43.5 -80.5q-11 -57 15.5 -84t80.5 -27q51 0 86.5 27t44.5 81z" />
    <glyph glyph-name="integral" unicode="&#x222b;" horiz-adv-x="407" 
d="M466 644q-4 -19 -24 -19q-54 0 -85.5 -29t-43.5 -98l-92 -523q-16 -88 -68.5 -127t-146.5 -39q-19 0 -16 20q3 19 23 19q54 0 85.5 29t44.5 98l92 523q15 88 67.5 127t146.5 39q20 0 17 -20z" />
    <glyph glyph-name="approxequal" unicode="&#x2248;" horiz-adv-x="480" 
d="M502 438q-37 -35 -67.5 -47.5t-59.5 -12.5q-13 0 -36.5 7.5t-48.5 16t-47 16t-32 7.5q-29 0 -58.5 -14.5t-69.5 -53.5l13 76q39 35 69.5 48t57.5 13q12 0 34.5 -7.5t47.5 -16.5t48 -16.5t34 -7.5q29 0 57.5 14.5t71.5 53.5zM472 268q-37 -35 -67.5 -47.5t-59.5 -12.5
q-13 0 -36.5 7.5t-48.5 16t-47 16t-32 7.5q-29 0 -58.5 -14.5t-69.5 -53.5l13 76q39 36 69.5 48.5t57.5 12.5q12 0 34.5 -7.5t47.5 -16.5t48 -16.5t34 -7.5q29 0 57.5 14.5t71.5 53.5z" />
    <glyph glyph-name="notequal" unicode="&#x2260;" horiz-adv-x="456" 
d="M461 338q-5 -23 -29 -23h-331q-12 0 -18 6t-3 17q5 23 29 23h331q24 0 21 -23zM436 508l-305 -458h-49l306 458h48zM437 205l-1 -3q-2 -5 -3 -6l1 3v-2l-4 -5l-5 -3l-4 -1q-2 -2 -5 -2h-4h-3h-331h-8l-4 2q-1 1 -2 1q-3 0 -3 1l-3 4q-3 5 -2 11l1 4v3q4 17 20 19q1 1 9 1
h331h4l9 -3q6 -2 6 -6q2 -2 2 -4v-2q1 -1 0 -5v-3z" />
    <glyph glyph-name="lessequal" unicode="&#x2264;" horiz-adv-x="412" 
d="M389 193q0 -5 -8 -5h-44q-14 0 -23 9l-216 222q-2 7 -1 10q0 5 3 8l298 221q10 8 23 8l45 1q6 0 5 -7l-2 -8l-266 -215q-3 -8 -4 -9q0 -7 2 -11l186 -213q3 -8 2 -11zM364 38q-3 -10 -13 -20q-9 -11 -20 -11q-7 0 -13 6l-244 255q-6 7 -4 16q2 12 13 20.5t19 8.5
q7 0 14 -7l242 -253q7 -7 6 -15z" />
    <glyph glyph-name="greaterequal" unicode="&#x2265;" horiz-adv-x="412" 
d="M432 429q-2 -6 -5 -10l-294 -222q-12 -9 -27 -9h-44q-7 0 -7 5q0 2 7 11l262 213q4 8 4 11v9l-190 215q-1 1 0 8t9 7l43 -1q13 0 21 -8l220 -221v-6q0 -1 1 -2zM407 284q-1 -9 -10 -16l-334 -255q-8 -6 -15 -6q-10 0 -16 11q-8 11 -5 20q1 8 10 15l332 253q8 7 16 7
t16 -8.5t6 -20.5z" />
    <glyph glyph-name="lozenge" unicode="&#x25ca;" horiz-adv-x="613" 
d="M606 275q0 -6 -5 -11l-256 -254q-17 -9 -29 -10h-52q-16 0 -27 10l-166 254q-3 3 -3 11q1 3 5 11l262 251q10 10 25 10h49q8 0 14.5 -3t9.5 -7l172 -252q3 -4 1 -10zM489 274q2 5 -1 11l-114 203l-185 -203q-4 -8 -5 -12q-1 -5 1 -11l113 -205l185 205q4 3 6 12z" />
    <glyph glyph-name="uniE0FF" unicode="&#xe0ff;" 
 />
    <glyph glyph-name="uniEFFD" unicode="&#xeffd;" 
 />
    <glyph glyph-name="uniF000" unicode="&#xf000;" 
 />
    <glyph glyph-name="apple" unicode="&#xf8ff;" 
 />
    <glyph glyph-name="fi" unicode="&#xfb01;" horiz-adv-x="530" 
d="M478 15q-3 -15 -22 -15h-156q-20 0 -17 15q2 11 12 17.5t22 12t22.5 11.5t12.5 17l61 347q3 19 -26 19h-144q-9 0 -10 -10l-65 -366q-2 -10 6 -15.5t18.5 -9.5t18.5 -9t7 -14q-3 -15 -22 -15h-156q-20 0 -17 15q1 9 11 14t22 9t22 9.5t12 15.5l63 358q3 18 -17 18h-19
q-19 0 -15 25q4 24 24 24h29q11 0 12 10q15 88 67.5 127t146.5 39q51 0 79.5 -9t41.5 -20t15 -21t2 -11q3 -7 1 -18q-6 -38 -51 -38q-43 0 -37 39q4 21 18 30q-14 5 -29 7.5t-29 2.5q-60 0 -97 -27.5t-50 -100.5q-1 -10 7 -10h231q20 0 17 -19l-70 -395q-2 -11 6 -17.5
t17.5 -12.5t17.5 -12.5t7 -16.5z" />
    <glyph glyph-name="fl" unicode="&#xfb02;" horiz-adv-x="544" 
d="M492 16q-3 -15 -22 -15h-157q-19 0 -16 14q1 9 11 14t22 10t21.5 10.5t11.5 15.5l103 581q2 10 -4 18.5t-20 8.5q-21 0 -23 -1h-2q-44 0 -73.5 -11.5t-49 -34t-31 -54.5t-18.5 -73q-1 -10 8 -10h48q20 0 16 -24q-4 -25 -23 -25h-49q-11 0 -12 -9l-65 -367
q-2 -9 6.5 -14.5t18.5 -10t18 -9.5t7 -14q-3 -15 -22 -15h-156q-20 0 -17 15q1 9 11.5 14t22 9.5t21.5 10t12 15.5l63 357q4 18 -16 18h-19q-20 0 -16 25q4 24 24 24h29q11 0 12 10q10 60 32 101.5t60.5 66.5t96.5 36t142 11h39q20 0 15 -20l-111 -630q-2 -9 6.5 -14.5
t19 -10t18.5 -9.5t7 -14z" />
    <glyph glyph-name="_243" 
 />
    <glyph glyph-name="_244" 
 />
    </font>
</defs>
</svg>
